<?xml version="1.0" encoding="UTF-8"?>
<svg version="1.1" xmlns="http://www.w3.org/2000/svg" width="24" height="24">
<path d="M0 0 C3.3 0 6.6 0 10 0 C9.14827018 10.184514 9.14827018 10.184514 8.375 14.4375 C7.83799707 16.95444385 7.83799707 16.95444385 8.5625 19.1875 C8.706875 19.785625 8.85125 20.38375 9 21 C8.34 21.99 7.68 22.98 7 24 C5.35 23.67 3.7 23.34 2 23 C1 18.25 1 18.25 1 16 C0.46807421 13.27003376 -0.09186002 10.54684054 -0.66015625 7.82421875 C-1.00911122 4.92428265 -0.73178913 2.80945616 0 0 Z " fill="#0B0B0B" transform="translate(7,0)"/>
<path d="M0 0 C2.31 0 4.62 0 7 0 C6.34 4.29 5.68 8.58 5 13 C4.01 13 3.02 13 2 13 C-0.28571429 4.57142857 -0.28571429 4.57142857 0 0 Z " fill="#F3F3F3" transform="translate(8,2)"/>
<path d="M0 0 C1.37478516 0.01740234 1.37478516 0.01740234 2.77734375 0.03515625 C3.69644531 0.04417969 4.61554687 0.05320313 5.5625 0.0625 C6.27277344 0.07410156 6.98304687 0.08570313 7.71484375 0.09765625 C7.57248918 1.82711278 7.42579993 3.55621279 7.27734375 5.28515625 C7.19613281 6.24808594 7.11492188 7.21101562 7.03125 8.203125 C6.73818224 10.88415227 6.28780621 13.46395485 5.71484375 16.09765625 C5.05484375 15.76765625 4.39484375 15.43765625 3.71484375 15.09765625 C4.37484375 10.80765625 5.03484375 6.51765625 5.71484375 2.09765625 C3.40484375 2.09765625 1.09484375 2.09765625 -1.28515625 2.09765625 C-0.95515625 4.73765625 -0.62515625 7.37765625 -0.28515625 10.09765625 C-1.27515625 10.59265625 -1.27515625 10.59265625 -2.28515625 11.09765625 C-2.47922103 9.45258407 -2.6652356 7.80656031 -2.84765625 6.16015625 C-2.95207031 5.24363281 -3.05648438 4.32710938 -3.1640625 3.3828125 C-3.20402344 2.62871094 -3.24398438 1.87460937 -3.28515625 1.09765625 C-2.28515625 0.09765625 -2.28515625 0.09765625 0 0 Z " fill="#1A1A1A" transform="translate(9.28515625,-0.09765625)"/>
<path d="M0 0 C1.32 0.33 2.64 0.66 4 1 C4.33 2.32 4.66 3.64 5 5 C3.35 5.33 1.7 5.66 0 6 C-0.66 5.01 -1.32 4.02 -2 3 C-1.34 2.01 -0.68 1.02 0 0 Z " fill="#7C7C7C" transform="translate(10,18)"/>
</svg>
