<?xml version="1.0" encoding="UTF-8"?>
<svg version="1.1" xmlns="http://www.w3.org/2000/svg" width="24" height="24">
<path d="M0 0 C0.66 0 1.32 0 2 0 C2.33 0.94875 2.66 1.8975 3 2.875 C5.17283915 6.27006117 5.51890422 6.49193978 9.1875 7.375 C10.445625 7.58125 11.70375 7.7875 13 8 C11.7625 9.2375 11.7625 9.2375 10.5 10.5 C8.2385682 13.16275632 7.65644487 14.88440321 7.6875 18.375 C7.790625 19.57125 7.89375 20.7675 8 22 C6.7625 21.62875 5.525 21.2575 4.25 20.875 C0.9429687 20.00385913 0.9429687 20.00385913 -2.3125 20.875 C-3.1478125 21.431875 -3.1478125 21.431875 -4 22 C-4.99 22 -5.98 22 -7 22 C-6.95359375 21.40832031 -6.9071875 20.81664063 -6.859375 20.20703125 C-6.66152511 15.87553196 -6.56345433 13.66846056 -9 9.9375 C-9.66 9.298125 -10.32 8.65875 -11 8 C-8.36 7.67 -5.72 7.34 -3 7 C-2.690625 6.030625 -2.38125 5.06125 -2.0625 4.0625 C-1 1 -1 1 0 0 Z M0 5 C-0.33 6.32 -0.66 7.64 -1 9 C-2.98 9 -4.96 9 -7 9 C-6.505 9.53625 -6.01 10.0725 -5.5 10.625 C-3.62510456 13.59358445 -3.76498575 15.55312427 -4 19 C-2.906875 18.814375 -1.81375 18.62875 -0.6875 18.4375 C3 18 3 18 6 19 C5.938125 18.0925 5.87625 17.185 5.8125 16.25 C6.01672076 12.71017358 6.64551835 11.55068845 9 9 C7.02 9 5.04 9 3 9 C2.67 7.68 2.34 6.36 2 5 C1.34 5 0.68 5 0 5 Z " fill="#000000" transform="translate(11,1)"/>
</svg>
