<?xml version="1.0" encoding="UTF-8"?>
<svg version="1.1" xmlns="http://www.w3.org/2000/svg" width="126" height="126">
<path d="M0 0 C2.49757417 2.18443421 4.83827401 4.44354758 7.1484375 6.82421875 C7.79425781 7.46101563 8.44007812 8.0978125 9.10546875 8.75390625 C19.90538817 20.0949981 24.16038005 35.39117198 24.20996094 50.71875 C23.72655952 67.26182068 16.7946026 82.06642906 5.1484375 93.82421875 C-8.12302513 105.32352761 -23.65999219 110.55028466 -41.16015625 110.1015625 C-58.45432618 108.80221217 -72.23111347 101.30928452 -83.8515625 88.82421875 C-95.54753135 75.02125551 -99.17820874 58.50845691 -97.8515625 40.82421875 C-95.55341066 23.53979946 -86.45936679 9.47881604 -72.82421875 -1.13671875 C-50.94479905 -16.14467813 -21.24477294 -16.21005278 0 0 Z " fill="#FBFBFB" transform="translate(99.8515625,14.17578125)"/>
<path d="M0 0 C2.49757417 2.18443421 4.83827401 4.44354758 7.1484375 6.82421875 C7.79425781 7.46101563 8.44007812 8.0978125 9.10546875 8.75390625 C19.90538817 20.0949981 24.16038005 35.39117198 24.20996094 50.71875 C23.72655952 67.26182068 16.7946026 82.06642906 5.1484375 93.82421875 C-8.12302513 105.32352761 -23.65999219 110.55028466 -41.16015625 110.1015625 C-58.45432618 108.80221217 -72.23111347 101.30928452 -83.8515625 88.82421875 C-95.54753135 75.02125551 -99.17820874 58.50845691 -97.8515625 40.82421875 C-95.55341066 23.53979946 -86.45936679 9.47881604 -72.82421875 -1.13671875 C-50.94479905 -16.14467813 -21.24477294 -16.21005278 0 0 Z M-59.8515625 -2.17578125 C-60.60953125 -1.82515625 -61.3675 -1.47453125 -62.1484375 -1.11328125 C-77.26384942 6.3923026 -86.31047909 19.48478625 -91.6015625 35.02734375 C-94.45422787 45.40787608 -94.06017532 57.9403553 -89.8515625 67.82421875 C-89.449375 68.7884375 -89.0471875 69.75265625 -88.6328125 70.74609375 C-85.18352934 78.29619134 -80.74263263 84.01641463 -74.8515625 89.82421875 C-74.00464844 90.68660156 -74.00464844 90.68660156 -73.140625 91.56640625 C-62.91973823 101.18899721 -48.74535933 105.43265168 -34.9765625 105.04296875 C-19.54368813 103.96266754 -5.16736281 97.17087403 5.4921875 85.8828125 C16.98730115 71.59525379 19.8571547 55.66674642 18.1484375 37.82421875 C15.58050181 24.29206324 7.07270631 11.7854067 -3.86328125 3.55859375 C-19.75076929 -6.79031281 -42.27675739 -11.51623711 -59.8515625 -2.17578125 Z " fill="#050505" transform="translate(99.8515625,14.17578125)"/>
<path d="M0 0 C3.08508628 0.73067833 4.2792047 2.24989829 6.375 4.5625 C7.035 4.5625 7.695 4.5625 8.375 4.5625 C8.931875 3.881875 9.48875 3.20125 10.0625 2.5 C12.375 0.5625 12.375 0.5625 15.875 0.5625 C19.69156581 1.65294737 21.20067969 2.25753313 23.375 5.5625 C24.49705052 12.71557206 21.37326341 18.56510489 17.5 24.375 C14.9422986 27.00792792 12.64088686 28.86423883 9.375 30.5625 C4.46348164 30.5625 1.84113189 28.93975671 -1.625 25.5625 C-5.94824732 20.414587 -8.18160098 15.72171802 -9.125 9 C-8.625 5.5625 -8.625 5.5625 -5.9375 2.625 C-2.625 0.5625 -2.625 0.5625 0 0 Z " fill="#060606" transform="translate(55.625,52.4375)"/>
<path d="M0 0 C2.46331458 0.97290576 3.77482216 1.66362323 5.265625 3.890625 C9.22051375 13.36980279 9.56405388 23.49533488 5.8515625 33.1328125 C4.94793732 35.11415579 3.99103897 37.06101071 3 39 C1.68 39 0.36 39 -1 39 C-0.47976853 35.77456487 0.40624673 32.91289185 1.5625 29.875 C4.20401241 22.0415494 3.7151718 14.62616867 0.75390625 6.97265625 C-0.00457483 4.98802958 -0.607502 3.08881118 -1 1 C-0.67 0.67 -0.34 0.34 0 0 Z " fill="#131313" transform="translate(103,43)"/>
<path d="M0 0 C0.99 0.33 1.98 0.66 3 1 C1 7 1 7 -0.125 9.625 C-2.42331546 18.48993105 -0.96271828 26.5263187 2 35 C2.34831062 36.32949938 2.68674141 37.66180796 3 39 C1.68 39 0.36 39 -1 39 C-3.79758265 33.99037525 -5.61223817 29.81642745 -6 24 C-6.06316406 23.09121094 -6.12632813 22.18242188 -6.19140625 21.24609375 C-6.47570263 14.0653175 -5.46431826 8.34703564 -2 2 C-1.34 1.34 -0.68 0.68 0 0 Z " fill="#111111" transform="translate(21,43)"/>
<path d="M0 0 C1.32 0.33 2.64 0.66 4 1 C2.125 6.75 2.125 6.75 1 9 C0.40389139 16.99014815 0.98187042 23.58043146 4 31 C2.68 31 1.36 31 0 31 C-4.14434208 23.83990899 -5.0480544 17.1929637 -4 9 C-2.97402145 5.79381704 -1.68491358 2.91098908 0 0 Z " fill="#121212" transform="translate(27,47)"/>
<path d="M0 0 C0.99 0 1.98 0 3 0 C7.14434208 7.16009101 8.0480544 13.8070363 7 22 C5.97402145 25.20618296 4.68491358 28.08901092 3 31 C1.68 31 0.36 31 -1 31 C-0.505 29.783125 -0.01 28.56625 0.5 27.3125 C2.86361918 20.19913181 3.43181785 12.3218174 0.4375 5.375 C-0.2740625 4.199375 -0.2740625 4.199375 -1 3 C-0.67 2.01 -0.34 1.02 0 0 Z " fill="#111111" transform="translate(96,47)"/>
<path d="M0 0 C1.875 0.125 1.875 0.125 4 1 C6.73826676 6.20270684 6.57526052 12.26482689 6 18 C4.6875 21.1875 4.6875 21.1875 3 23 C2.01 23 1.02 23 0 23 C0.165 22.05125 0.33 21.1025 0.5 20.125 C1.4536049 13.40889695 1.39924103 6.64639489 0 0 Z " fill="#101010" transform="translate(89,51)"/>
<path d="M0 0 C0.99 0 1.98 0 3 0 C2.835 0.78375 2.67 1.5675 2.5 2.375 C1.54062137 9.33049504 1.79938774 16.09647953 3 23 C1.125 22.75 1.125 22.75 -1 22 C-3.97999312 17.40976499 -3.51177621 12.266103 -3 7 C-2.23321971 4.420427 -1.27410455 2.38894603 0 0 Z " fill="#101010" transform="translate(34,51)"/>
<path d="M0 0 C0.99 0 1.98 0 3 0 C3 5.28 3 10.56 3 16 C1.68 15.67 0.36 15.34 -1 15 C-1.92867074 12.21398777 -2.16342217 10.38933911 -2.1875 7.5 C-2.20167969 6.7265625 -2.21585938 5.953125 -2.23046875 5.15625 C-2 3 -2 3 0 0 Z " fill="#141414" transform="translate(41,55)"/>
<path d="M0 0 C1.32 0.33 2.64 0.66 4 1 C5.16297973 3.32595946 5.16600691 4.78723231 5.1875 7.375 C5.20167969 8.14585938 5.21585937 8.91671875 5.23046875 9.7109375 C4.97801607 12.21834888 4.25193467 13.83261902 3 16 C2.01 15.67 1.02 15.34 0 15 C0 10.05 0 5.1 0 0 Z " fill="#121212" transform="translate(82,55)"/>
</svg>
