<?xml version="1.0" encoding="UTF-8"?>
<svg version="1.1" xmlns="http://www.w3.org/2000/svg" width="126" height="126">
<path d="M0 0 C2.49757417 2.18443421 4.83827401 4.44354758 7.1484375 6.82421875 C7.79425781 7.46101563 8.44007812 8.0978125 9.10546875 8.75390625 C19.90538817 20.0949981 24.16038005 35.39117198 24.20996094 50.71875 C23.72655952 67.26182068 16.7946026 82.06642906 5.1484375 93.82421875 C-8.12302513 105.32352761 -23.65999219 110.55028466 -41.16015625 110.1015625 C-58.45432618 108.80221217 -72.23111347 101.30928452 -83.8515625 88.82421875 C-95.54753135 75.02125551 -99.17820874 58.50845691 -97.8515625 40.82421875 C-95.55341066 23.53979946 -86.45936679 9.47881604 -72.82421875 -1.13671875 C-50.94479905 -16.14467813 -21.24477294 -16.21005278 0 0 Z " fill="#FCFCFC" transform="translate(99.8515625,14.17578125)"/>
<path d="M0 0 C6.23905925 3.72936249 10.67880436 8.95340588 12.578125 16.0546875 C13.38627685 20.75715498 13.88362681 25.28415916 13.578125 30.0546875 C11.328125 32.9296875 11.328125 32.9296875 8.578125 35.0546875 C7.61840506 37.09860989 6.92522372 39.13117443 6.25390625 41.28515625 C5.578125 43.0546875 5.578125 43.0546875 3.578125 45.0546875 C3.41125052 47.63822968 3.41125052 47.63822968 3.578125 50.0546875 C4.51914063 50.22484375 5.46015625 50.395 6.4296875 50.5703125 C20.44797673 53.29850958 20.44797673 53.29850958 25.453125 59.3046875 C26.99533218 63.07452727 26.78438879 65.99816622 26.578125 70.0546875 C16.06246281 75.43479374 3.96872109 75.41760799 -7.609375 75.3671875 C-8.86862793 75.36517334 -10.12788086 75.36315918 -11.42529297 75.36108398 C-22.23776725 75.24546846 -33.09573744 74.49673335 -43.421875 71.0546875 C-43.80152252 66.30909349 -43.90415672 62.98480225 -41.671875 58.6796875 C-37.73389917 54.08538236 -34.75003221 52.66803684 -28.796875 51.4921875 C-24.1086029 50.73239143 -24.1086029 50.73239143 -20.421875 48.0546875 C-20.7847799 44.54660676 -22.61703696 42.01462188 -24.421875 39.0546875 C-24.73125 38.2090625 -25.040625 37.3634375 -25.359375 36.4921875 C-26.2626425 33.92818243 -26.2626425 33.92818243 -28.484375 32.31640625 C-30.421875 30.0546875 -30.421875 30.0546875 -30.76953125 26.953125 C-30.02562846 17.76133981 -28.59911841 9.39405673 -21.359375 3.0546875 C-14.80315117 -1.40912447 -7.70514268 -3.00749117 0 0 Z " fill="#1A1B1B" transform="translate(71.421875,22.9453125)"/>
<path d="M0 0 C2.49757417 2.18443421 4.83827401 4.44354758 7.1484375 6.82421875 C7.79425781 7.46101563 8.44007812 8.0978125 9.10546875 8.75390625 C19.90538817 20.0949981 24.16038005 35.39117198 24.20996094 50.71875 C23.72655952 67.26182068 16.7946026 82.06642906 5.1484375 93.82421875 C-8.12302513 105.32352761 -23.65999219 110.55028466 -41.16015625 110.1015625 C-58.45432618 108.80221217 -72.23111347 101.30928452 -83.8515625 88.82421875 C-95.54753135 75.02125551 -99.17820874 58.50845691 -97.8515625 40.82421875 C-95.55341066 23.53979946 -86.45936679 9.47881604 -72.82421875 -1.13671875 C-50.94479905 -16.14467813 -21.24477294 -16.21005278 0 0 Z M-59.8515625 -2.17578125 C-60.60953125 -1.82515625 -61.3675 -1.47453125 -62.1484375 -1.11328125 C-77.26384942 6.3923026 -86.31047909 19.48478625 -91.6015625 35.02734375 C-94.45422787 45.40787608 -94.06017532 57.9403553 -89.8515625 67.82421875 C-89.449375 68.7884375 -89.0471875 69.75265625 -88.6328125 70.74609375 C-85.18352934 78.29619134 -80.74263263 84.01641463 -74.8515625 89.82421875 C-74.00464844 90.68660156 -74.00464844 90.68660156 -73.140625 91.56640625 C-62.91973823 101.18899721 -48.74535933 105.43265168 -34.9765625 105.04296875 C-19.54368813 103.96266754 -5.16736281 97.17087403 5.4921875 85.8828125 C16.98730115 71.59525379 19.8571547 55.66674642 18.1484375 37.82421875 C15.58050181 24.29206324 7.07270631 11.7854067 -3.86328125 3.55859375 C-19.75076929 -6.79031281 -42.27675739 -11.51623711 -59.8515625 -2.17578125 Z " fill="#050505" transform="translate(99.8515625,14.17578125)"/>
<path d="M0 0 C6.23905925 3.72936249 10.67880436 8.95340588 12.578125 16.0546875 C13.38627685 20.75715498 13.88362681 25.28415916 13.578125 30.0546875 C11.328125 32.9296875 11.328125 32.9296875 8.578125 35.0546875 C7.61840506 37.09860989 6.92522372 39.13117443 6.25390625 41.28515625 C5.578125 43.0546875 5.578125 43.0546875 3.578125 45.0546875 C3.578125 46.3746875 3.578125 47.6946875 3.578125 49.0546875 C2.918125 49.0546875 2.258125 49.0546875 1.578125 49.0546875 C1.578125 48.3946875 1.578125 47.7346875 1.578125 47.0546875 C0.918125 47.0546875 0.258125 47.0546875 -0.421875 47.0546875 C0.6086736 44.28013359 1.68652121 41.88205651 3.265625 39.3671875 C3.69875 38.6040625 4.131875 37.8409375 4.578125 37.0546875 C4.248125 36.3946875 3.918125 35.7346875 3.578125 35.0546875 C2.65 35.0959375 1.721875 35.1371875 0.765625 35.1796875 C-2.421875 35.0546875 -2.421875 35.0546875 -5.421875 33.0546875 C-6.081875 33.7146875 -6.741875 34.3746875 -7.421875 35.0546875 C-7.421875 34.0646875 -7.421875 33.0746875 -7.421875 32.0546875 C-8.081875 32.0546875 -8.741875 32.0546875 -9.421875 32.0546875 C-9.751875 32.7146875 -10.081875 33.3746875 -10.421875 34.0546875 C-13.109375 34.6171875 -13.109375 34.6171875 -16.421875 35.0546875 C-17.535625 35.2403125 -18.649375 35.4259375 -19.796875 35.6171875 C-20.663125 35.7615625 -21.529375 35.9059375 -22.421875 36.0546875 C-22.751875 37.0446875 -23.081875 38.0346875 -23.421875 39.0546875 C-23.64875 38.4978125 -23.875625 37.9409375 -24.109375 37.3671875 C-25.32800652 34.83327632 -25.32800652 34.83327632 -28.109375 33.1796875 C-31.46048746 28.65115715 -30.74105102 25.09843909 -30.12890625 19.640625 C-28.53201656 11.54148282 -25.24852807 5.70262151 -18.421875 1.0546875 C-13.01407308 -2.19925755 -5.82747937 -2.27459679 0 0 Z " fill="#151617" transform="translate(71.421875,22.9453125)"/>
<path d="M0 0 C2.46484375 1.8984375 2.46484375 1.8984375 4.9375 4.375 C8.41963079 7.85161236 11.05854071 10.15179112 16 11 C18.73010814 9.88255671 18.73010814 9.88255671 21.125 7.875 C21.95257813 7.25367187 22.78015625 6.63234375 23.6328125 5.9921875 C26.0402967 4.05746127 26.0402967 4.05746127 28.03125 1.75390625 C30 0 30 0 32.1484375 -0.27734375 C42.93250748 1.36864588 42.93250748 1.36864588 46.375 5.75 C47.2409895 8.8675622 47.12368441 11.78420527 47 15 C44.95888458 15.48150942 42.91708068 15.96010083 40.875 16.4375 C39.73804688 16.70433594 38.60109375 16.97117187 37.4296875 17.24609375 C29.96001065 18.88806144 22.93906828 19.18318877 15.3125 19.1875 C13.63124023 19.20586914 13.63124023 19.20586914 11.91601562 19.22460938 C4.71710642 19.23714375 -1.97470592 18.55392714 -9 17 C-10.32040283 16.71588257 -10.32040283 16.71588257 -11.66748047 16.42602539 C-13.78123843 15.96383282 -15.89112929 15.48400311 -18 15 C-17.63704497 7.86188437 -17.63704497 7.86188437 -14.875 4.125 C-10.4239799 0.83511558 -5.52578003 -0.6750953 0 0 Z " fill="#F7F7F7" transform="translate(48,77)"/>
<path d="M0 0 C3.90584893 0.86796643 5.59300598 1.42233107 7.9375 4.75 C9.11510231 8.35207765 8.94976786 10.37361362 8 14 C8.66 14.33 9.32 14.66 10 15 C9.34 17.31 8.68 19.62 8 22 C7.67 22 7.34 22 7 22 C6.505 19.525 6.505 19.525 6 17 C4.68 17 3.36 17 2 17 C2 16.01 2 15.02 2 14 C2.99 14 3.98 14 5 14 C3.68 14 2.36 14 1 14 C0.01 14.66 -0.98 15.32 -2 16 C-1.34 13.69 -0.68 11.38 0 9 C-1.70884005 10.62339805 -3.37446717 12.29319053 -5 14 C-5 14.66 -5 15.32 -5 16 C-5.5625 17.9375 -5.5625 17.9375 -7 20 C-11.86099544 22.61745908 -14.30935049 23 -20 23 C-20 19.04 -20 15.08 -20 11 C-18.2675 10.38125 -18.2675 10.38125 -16.5 9.75 C-12.77837688 8.36182796 -9.27876416 6.70775082 -5.76171875 4.8671875 C-4 4 -4 4 -1 3 C-0.67 2.01 -0.34 1.02 0 0 Z " fill="#F8F8F8" transform="translate(68,33)"/>
<path d="M0 0 C4.21887031 2.18722344 6.67641057 5.10554968 8.73828125 9.30859375 C9.31707503 12.30556835 9.60284305 15.26123415 9.73828125 18.30859375 C9.44824219 17.71304688 9.15820312 17.1175 8.859375 16.50390625 C6.70811005 12.29132471 4.70271842 8.95155186 0.73828125 6.30859375 C-2.18615731 5.94887846 -3.71436304 5.97696058 -6.25390625 7.515625 C-6.87523438 8.04542969 -7.4965625 8.57523438 -8.13671875 9.12109375 C-13.64026953 13.50947852 -19.54416979 15.52638688 -26.26171875 17.30859375 C-25.93344615 11.07141439 -24.76755046 6.8030471 -20.26171875 2.30859375 C-14.40591503 -1.99773614 -6.86557992 -2.09880422 0 0 Z " fill="#F4F4F4" transform="translate(71.26171875,25.69140625)"/>
<path d="M0 0 C0.66 0.33 1.32 0.66 2 1 C1.34 2.98 0.68 4.96 0 7 C0.99 6.01 1.98 5.02 3 4 C4.32 4.66 5.64 5.32 7 6 C6.01 6.495 6.01 6.495 5 7 C4.34 6.67 3.68 6.34 3 6 C3 6.99 3 7.98 3 9 C4.65 8.67 6.3 8.34 8 8 C8.33 9.32 8.66 10.64 9 12 C11.33075929 11.04134491 11.33075929 11.04134491 13 8 C13 9.65 13 11.3 13 13 C16.16666667 11.16666667 16.16666667 11.16666667 18 8 C17.75 10.8125 17.75 10.8125 17 14 C16.38125 14.45375 15.7625 14.9075 15.125 15.375 C12.28133534 17.54956709 11.76933021 19.81688045 10.7109375 23.16015625 C10 25 10 25 8 27 C8 28.32 8 29.64 8 31 C7.34 31 6.68 31 6 31 C6 30.34 6 29.68 6 29 C5.34 29 4.68 29 4 29 C5.0305486 26.22544609 6.10839621 23.82736901 7.6875 21.3125 C8.120625 20.549375 8.55375 19.78625 9 19 C8.67 18.34 8.34 17.68 8 17 C6.6078125 17.061875 6.6078125 17.061875 5.1875 17.125 C2 17 2 17 -1 15 C-1.66 15.66 -2.32 16.32 -3 17 C-3 16.01 -3 15.02 -3 14 C-3.66 14 -4.32 14 -5 14 C-5.33 14.66 -5.66 15.32 -6 16 C-7.32 16 -8.64 16 -10 16 C-10.33 15.01 -10.66 14.02 -11 13 C-9.35 12.67 -7.7 12.34 -6 12 C-5.12132271 8.26562152 -4.91087781 4.83225427 -5 1 C-3 2 -3 2 -2 3 C-1.34 2.01 -0.68 1.02 0 0 Z " fill="#151616" transform="translate(67,41)"/>
<path d="M0 0 C0 0.66 0 1.32 0 2 C0.66 2.33 1.32 2.66 2 3 C0.77023438 3.25523438 0.77023438 3.25523438 -0.484375 3.515625 C-2.10085937 3.87914063 -2.10085937 3.87914063 -3.75 4.25 C-4.81734375 4.48203125 -5.8846875 4.7140625 -6.984375 4.953125 C-10.34686886 6.12041562 -11.81967774 7.21403267 -14 10 C-14.88246003 12.09989111 -14.88246003 12.09989111 -15.25 14.25 C-15.4975 15.4875 -15.745 16.725 -16 18 C-14.741875 18.12375 -13.48375 18.2475 -12.1875 18.375 C-8.81629155 18.73573747 -5.589093 19.29942633 -2.28125 20.03125 C5.66600781 21.50001925 13.63914618 21.21434187 21.6875 21.125 C23.27538495 21.11494496 24.8632761 21.1058236 26.45117188 21.09765625 C30.30093725 21.07585443 34.15039827 21.04146559 38 21 C37.67 21.66 37.34 22.32 37 23 C20.91429341 27.52833675 -2.13930834 25.28689722 -18 20 C-18.37964752 15.25440599 -18.48228172 11.93011475 -16.25 7.625 C-11.8016234 2.4352273 -7.04207333 0 0 0 Z " fill="#0A0B0C" transform="translate(46,74)"/>
<path d="M0 0 C1.046875 2.06640625 1.046875 2.06640625 1.75 4.5625 C1.99234375 5.38878906 2.2346875 6.21507812 2.484375 7.06640625 C2.65453125 7.70449219 2.8246875 8.34257813 3 9 C3.99 9 4.98 9 6 9 C6.33 10.32 6.66 11.64 7 13 C3.78124833 14.60937584 0.4907823 14.4623984 -3 14 C-7.82796828 11.58601586 -10.35839285 8.67361265 -13 4 C-13 3.34 -13 2.68 -13 2 C-11.5882217 1.46605821 -10.17029756 0.94834896 -8.75 0.4375 C-7.96109375 0.14746094 -7.1721875 -0.14257812 -6.359375 -0.44140625 C-3.72127447 -1.06598965 -2.44600032 -1.18082774 0 0 Z " fill="#F5F5F5" transform="translate(62,57)"/>
<path d="M0 0 C3.90584893 0.86796643 5.59300598 1.42233107 7.9375 4.75 C9.11510231 8.35207765 8.94976786 10.37361362 8 14 C8.66 14.33 9.32 14.66 10 15 C9.34 17.31 8.68 19.62 8 22 C7.67 22 7.34 22 7 22 C6.67 20.35 6.34 18.7 6 17 C4.68 17 3.36 17 2 17 C2 16.01 2 15.02 2 14 C2.99 14 3.98 14 5 14 C3.68 14 2.36 14 1 14 C0.01 14.66 -0.98 15.32 -2 16 C-1.34 13.69 -0.68 11.38 0 9 C-1.65 10.65 -3.3 12.3 -5 14 C-4.67 10.7 -4.34 7.4 -4 4 C-3.01 3.67 -2.02 3.34 -1 3 C-0.67 2.01 -0.34 1.02 0 0 Z " fill="#C1C1C1" transform="translate(68,33)"/>
<path d="M0 0 C3.51705958 0.65271556 6.89325077 1.51393024 10.3125 2.5625 C11.19550781 2.83191406 12.07851562 3.10132813 12.98828125 3.37890625 C13.65214844 3.58386719 14.31601563 3.78882813 15 4 C13.6062718 8.43458973 11.39417765 10.87378374 8 14 C5.125 12.9375 5.125 12.9375 2 11 C0.43061668 7.07654169 0 4.22957668 0 0 Z " fill="#797979" transform="translate(62,55)"/>
<path d="M0 0 C0.66 0.33 1.32 0.66 2 1 C1.34 2.98 0.68 4.96 0 7 C0.99 6.01 1.98 5.02 3 4 C4.32 4.66 5.64 5.32 7 6 C6.01 6.495 6.01 6.495 5 7 C4.34 6.67 3.68 6.34 3 6 C3 6.99 3 7.98 3 9 C4.65 8.67 6.3 8.34 8 8 C8 9.98 8 11.96 8 14 C8.66 14 9.32 14 10 14 C9.67 14.66 9.34 15.32 9 16 C8.278125 15.690625 7.55625 15.38125 6.8125 15.0625 C4.19692691 14.07439461 1.74881018 13.4712246 -1 13 C-1 12.34 -1 11.68 -1 11 C-2.65 11 -4.3 11 -6 11 C-5.835 10.46375 -5.67 9.9275 -5.5 9.375 C-4.90339788 6.54113991 -4.9343632 3.8880194 -5 1 C-3 2 -3 2 -2 3 C-1.34 2.01 -0.68 1.02 0 0 Z " fill="#686868" transform="translate(67,41)"/>
<path d="M0 0 C4.91624688 1.69833983 7.09596053 4.50442106 9.4375 9.1875 C9.47772391 11.5204866 9.48070247 13.85456666 9.4375 16.1875 C8.7775 15.8575 8.1175 15.5275 7.4375 15.1875 C7.4375 13.5375 7.4375 11.8875 7.4375 10.1875 C6.4475 9.8575 5.4575 9.5275 4.4375 9.1875 C4.1075 7.5375 3.7775 5.8875 3.4375 4.1875 C0.63704954 3.33099347 0.63704954 3.33099347 -2.5625 3.1875 C-4.54209252 4.91558584 -4.54209252 4.91558584 -6.5625 7.1875 C-11.74196206 10.53208537 -16.45781151 11.75145082 -22.5625 12.1875 C-21.07655445 9.21560891 -18.93811758 9.0316754 -15.875 7.875 C-12.13027811 6.39216095 -9.13405088 5.14139144 -6.25 2.3125 C-3.5625 0.1875 -3.5625 0.1875 0 0 Z " fill="#181919" transform="translate(70.5625,30.8125)"/>
<path d="M0 0 C0.33 0 0.66 0 1 0 C1 2.64 1 5.28 1 8 C1.66 8.33 2.32 8.66 3 9 C3.625 11.0625 3.625 11.0625 4 13 C4 11.02 4 9.04 4 7 C3.34 7 2.68 7 2 7 C2 5.35 2 3.7 2 2 C5 2 5 2 7 3 C6.67 7.62 6.34 12.24 6 17 C8.97 16.67 11.94 16.34 15 16 C15 16.66 15 17.32 15 18 C11.91190305 19.76462683 10.76687864 20 7 20 C6.67 20.99 6.34 21.98 6 23 C5.773125 22.443125 5.54625 21.88625 5.3125 21.3125 C4.09386848 18.77858882 4.09386848 18.77858882 1.3125 17.125 C-2.5219359 11.94332987 -0.83915919 6.13998653 0 0 Z " fill="#1C1D1E" transform="translate(42,39)"/>
<path d="M0 0 C3.78212527 0.33371694 5.0623164 1.05452685 8 3.625 C10.69017169 6.2271032 10.69017169 6.2271032 13.5 6.125 C15.82373404 5.07931968 17.21818519 4.07660928 19.125 2.4375 C22 0 22 0 25 0 C24.47671952 3.93332492 22.81069239 5.40549853 19.75 7.8125 C18.98171875 8.43769531 18.2134375 9.06289062 17.421875 9.70703125 C15 11 15 11 12.53515625 10.9453125 C9.40854113 9.77945601 7.2663999 8.17528762 4.6875 6.0625 C3.80449219 5.35222656 2.92148437 4.64195313 2.01171875 3.91015625 C1.34785156 3.27980469 0.68398438 2.64945312 0 2 C0 1.34 0 0.68 0 0 Z " fill="#E7E7E7" transform="translate(50,75)"/>
<path d="M0 0 C0 0.66 0 1.32 0 2 C0.66 2.33 1.32 2.66 2 3 C0.77023438 3.25523438 0.77023438 3.25523438 -0.484375 3.515625 C-2.10085937 3.87914063 -2.10085937 3.87914063 -3.75 4.25 C-4.81734375 4.48203125 -5.8846875 4.7140625 -6.984375 4.953125 C-10.34686886 6.12041562 -11.81967774 7.21403267 -14 10 C-14.88246003 12.09989111 -14.88246003 12.09989111 -15.25 14.25 C-15.4975 15.4875 -15.745 16.725 -16 18 C-13.03 18.33 -10.06 18.66 -7 19 C-7.66 19.33 -8.32 19.66 -9 20 C-9 20.66 -9 21.32 -9 22 C-13.455 21.01 -13.455 21.01 -18 20 C-18.389842 13.56760697 -18.36934867 10.09757345 -14 5 C-10.38584165 1.38584165 -5.06266241 0 0 0 Z " fill="#242425" transform="translate(46,74)"/>
<path d="M0 0 C0.99 0.33 1.98 0.66 3 1 C4.81054127 1.09398229 6.62452781 1.12991987 8.4375 1.125 C9.85869141 1.12886719 9.85869141 1.12886719 11.30859375 1.1328125 C13.70140459 1.01473475 15.71336153 0.68112635 18 0 C16.50733258 3.79951706 14.44718865 5.8354862 11 8 C7.41207152 8.09199817 5.41228619 6.71162714 2.6875 4.5625 C1.800625 3.716875 0.91375 2.87125 0 2 C0 1.34 0 0.68 0 0 Z " fill="#E9E9E9" transform="translate(54,71)"/>
<path d="M0 0 C1.5625 1.125 1.5625 1.125 3 3 C2.6875 6.1875 2.6875 6.1875 2 9 C2.66 9.33 3.32 9.66 4 10 C3.34 12.31 2.68 14.62 2 17 C1.67 17 1.34 17 1 17 C0.67 15.35 0.34 13.7 0 12 C-1.32 12 -2.64 12 -4 12 C-4 11.01 -4 10.02 -4 9 C-3.01 9 -2.02 9 -1 9 C-2.32 9 -3.64 9 -5 9 C-5.99 9.66 -6.98 10.32 -8 11 C-6.125 6.25 -6.125 6.25 -5 4 C-3.68 4.33 -2.36 4.66 -1 5 C-0.67 3.35 -0.34 1.7 0 0 Z " fill="#C2C2C2" transform="translate(74,38)"/>
<path d="M0 0 C0.99 0 1.98 0 3 0 C3.556875 0.70125 4.11375 1.4025 4.6875 2.125 C7.6456288 5.80267365 10.86844343 8.68731594 15 11 C17.77810134 11.11338288 17.77810134 11.11338288 20 10 C20.99 9.67 21.98 9.34 23 9 C23 9.99 23 10.98 23 12 C20.875 13.8125 20.875 13.8125 18 15 C13.1503046 13.90082453 10.24270921 11.84610942 6.625 8.5 C5.75101563 7.7059375 4.87703125 6.911875 3.9765625 6.09375 C2 4 2 4 2 2 C1.34 2 0.68 2 0 2 C0 1.34 0 0.68 0 0 Z " fill="#141516" transform="translate(46,74)"/>
<path d="M0 0 C0.33 0 0.66 0 1 0 C1 4.29 1 8.58 1 13 C-3 15 -3 15 -5.25 14.625 C-5.8275 14.41875 -6.405 14.2125 -7 14 C-6.34 12.35 -5.68 10.7 -5 9 C-5.99 8.67 -6.98 8.34 -8 8 C-7 5 -7 5 -5 2 C-4.67 3.65 -4.34 5.3 -4 7 C-2.68 4.69 -1.36 2.38 0 0 Z " fill="#3C3C3D" transform="translate(83,39)"/>
<path d="M0 0 C1.98 0.66 3.96 1.32 6 2 C4.6062718 6.43458973 2.39417765 8.87378374 -1 12 C-1.99 11.01 -2.98 10.02 -4 9 C-3.67 8.01 -3.34 7.02 -3 6 C-1.35 5.67 0.3 5.34 2 5 C1.01 4.67 0.02 4.34 -1 4 C-0.67 2.68 -0.34 1.36 0 0 Z " fill="#737373" transform="translate(71,57)"/>
<path d="M0 0 C5.48264004 1.56646858 8.20108919 5.09454268 11.13671875 9.8359375 C12.23377899 12.5860342 12.19525441 14.79931472 12.125 17.75 C12.10695313 18.73484375 12.08890625 19.7196875 12.0703125 20.734375 C12.03550781 21.85585938 12.03550781 21.85585938 12 23 C11.67 23 11.34 23 11 23 C10.82984375 22.20335938 10.6596875 21.40671875 10.484375 20.5859375 C8.60490963 12.36827507 7.04106109 7.02932935 0 2 C0 1.34 0 0.68 0 0 Z " fill="#131415" transform="translate(71,24)"/>
<path d="M0 0 C0.33 0 0.66 0 1 0 C1 2.64 1 5.28 1 8 C-4.12325529 10.45489316 -8.33895411 11.50341703 -14 12 C-14.33 11.01 -14.66 10.02 -15 9 C-13.58461283 8.66127487 -12.16762037 8.32925376 -10.75 8 C-9.56664063 7.7215625 -9.56664063 7.7215625 -8.359375 7.4375 C-6 7 -6 7 -2 7 C-2.04125 6.21625 -2.0825 5.4325 -2.125 4.625 C-2 2 -2 2 0 0 Z " fill="#3B3B3C" transform="translate(97,85)"/>
<path d="M0 0 C0.66 0.33 1.32 0.66 2 1 C0.66786942 4.5865054 -0.76916059 7.87682483 -3 11 C-3.99 11 -4.98 11 -6 11 C-5.835 10.46375 -5.67 9.9275 -5.5 9.375 C-4.90339788 6.54113991 -4.9343632 3.8880194 -5 1 C-3 2 -3 2 -2 3 C-1.34 2.01 -0.68 1.02 0 0 Z " fill="#545454" transform="translate(67,41)"/>
<path d="M0 0 C2.0836309 0.14151828 4.16689938 0.28837936 6.25 0.4375 C7.99023438 0.55931641 7.99023438 0.55931641 9.765625 0.68359375 C12.30977376 0.93247787 14.55953248 1.28114942 17 2 C17 2.66 17 3.32 17 4 C14.9163691 3.85848172 12.83310062 3.71162064 10.75 3.5625 C9.58984375 3.48128906 8.4296875 3.40007812 7.234375 3.31640625 C4.69022624 3.06752213 2.44046752 2.71885058 0 2 C0 1.34 0 0.68 0 0 Z " fill="#131314" transform="translate(37,94)"/>
<path d="M0 0 C4.08963819 2.28538605 7.46362104 4.95706926 11 8 C10.01 8.33 9.02 8.66 8 9 C6.17578125 8.07421875 6.17578125 8.07421875 4.3125 6.6875 C3.68988281 6.23761719 3.06726562 5.78773437 2.42578125 5.32421875 C1.95527344 4.88722656 1.48476563 4.45023437 1 4 C1 3.34 1 2.68 1 2 C0.34 1.67 -0.32 1.34 -1 1 C-0.67 0.67 -0.34 0.34 0 0 Z " fill="#151516" transform="translate(52,72)"/>
<path d="M0 0 C-0.33 1.98 -0.66 3.96 -1 6 C-1.33 5.01 -1.66 4.02 -2 3 C-2.66 3 -3.32 3 -4 3 C-4.33 3.66 -4.66 4.32 -5 5 C-6.32 5 -7.64 5 -9 5 C-9.33 4.01 -9.66 3.02 -10 2 C-6.49223216 0.39644899 -3.85645121 -0.22036864 0 0 Z " fill="#242425" transform="translate(66,52)"/>
<path d="M0 0 C0.33 0 0.66 0 1 0 C1 4.29 1 8.58 1 13 C-0.98 13.99 -0.98 13.99 -3 15 C-2.125 9.125 -2.125 9.125 -1 8 C-0.76924918 6.65252916 -0.58846937 5.29622435 -0.4375 3.9375 C-0.2209375 1.9884375 -0.2209375 1.9884375 0 0 Z " fill="#535455" transform="translate(83,39)"/>
<path d="M0 0 C1.09658936 3.28976808 0.79953138 4.71303767 0 8 C0.66 8 1.32 8 2 8 C2.33 7.34 2.66 6.68 3 6 C3 9.3 3 12.6 3 16 C-0.34500054 12.65499946 -1.12940419 9.38106561 -1.1875 4.75 C-1 1 -1 1 0 0 Z " fill="#050607" transform="translate(44,38)"/>
<path d="M0 0 C0.33 0.99 0.66 1.98 1 3 C1.99 2.67 2.98 2.34 4 2 C4 2.66 4 3.32 4 4 C1.1875 5.5625 1.1875 5.5625 -2 7 C-2.99 6.67 -3.98 6.34 -5 6 C-5 4.35 -5 2.7 -5 1 C-3.515 1.99 -3.515 1.99 -2 3 C-1.34 2.01 -0.68 1.02 0 0 Z " fill="#CECECE" transform="translate(69,58)"/>
<path d="M0 0 C2.31 0.33 4.62 0.66 7 1 C7 1.66 7 2.32 7 3 C8.32 3 9.64 3 11 3 C11 3.66 11 4.32 11 5 C4.64948454 5.36637589 4.64948454 5.36637589 1.5625 3.625 C0 2 0 2 0 0 Z " fill="#030304" transform="translate(65,53)"/>
<path d="M0 0 C0.66 0 1.32 0 2 0 C1.21302675 3.41021743 0.12880057 6.68885166 -1 10 C-1.99 10 -2.98 10 -4 10 C-3.43697042 6.05879291 -2.3208055 3.2491277 0 0 Z " fill="#1D1E1F" transform="translate(47,29)"/>
<path d="M0 0 C0 0.66 0 1.32 0 2 C-3.3 2.66 -6.6 3.32 -10 4 C-10.33 3.01 -10.66 2.02 -11 1 C-7.27569643 0.30710631 -3.78916254 -0.11144596 0 0 Z " fill="#242526" transform="translate(93,93)"/>
<path d="M0 0 C0.33 0 0.66 0 1 0 C1 2.64 1 5.28 1 8 C1.66 8.33 2.32 8.66 3 9 C3 10.65 3 12.3 3 14 C2.01 14 1.02 14 0 14 C-1.03115279 10.73086376 -0.9638984 8.13958652 -0.5625 4.75 C-0.46066406 3.85796875 -0.35882813 2.9659375 -0.25390625 2.046875 C-0.17011719 1.37140625 -0.08632813 0.6959375 0 0 Z " fill="#5D5E5F" transform="translate(42,39)"/>
<path d="M0 0 C0.66 0 1.32 0 2 0 C4.17204 2.96187272 5.83561997 5.50685991 7 9 C6.01 9 5.02 9 4 9 C0 3.85714286 0 3.85714286 0 0 Z " fill="#101112" transform="translate(48,61)"/>
<path d="M0 0 C5.75 -0.125 5.75 -0.125 8 1 C7.34 3.31 6.68 5.62 6 8 C5.67 8 5.34 8 5 8 C4.67 6.35 4.34 4.7 4 3 C2.68 3 1.36 3 0 3 C0 2.01 0 1.02 0 0 Z " fill="#A8A8A8" transform="translate(70,47)"/>
<path d="M0 0 C0.66 0.33 1.32 0.66 2 1 C0.63016497 4.16115776 0.0109362 4.9927092 -3 7 C-5.1875 6.625 -5.1875 6.625 -7 6 C-5.62209707 3.24419414 -3.62850007 2.51138754 -1 1 C-0.67 0.67 -0.34 0.34 0 0 Z " fill="#28292A" transform="translate(68,75)"/>
<path d="M0 0 C2.475 0.99 2.475 0.99 5 2 C4.01 2.495 4.01 2.495 3 3 C2.34 2.67 1.68 2.34 1 2 C1.33 3.32 1.66 4.64 2 6 C0.68 6.33 -0.64 6.66 -2 7 C-2 3 -2 3 0 0 Z " fill="#3C3C3C" transform="translate(69,45)"/>
<path d="M0 0 C3 0 3 0 5 1 C4.67 4.3 4.34 7.6 4 11 C3.67 11 3.34 11 3 11 C2.67 9.02 2.34 7.04 2 5 C1.34 5 0.68 5 0 5 C0 3.35 0 1.7 0 0 Z " fill="#515253" transform="translate(44,41)"/>
<path d="M0 0 C1.98 0.66 3.96 1.32 6 2 C5.34 3.65 4.68 5.3 4 7 C3.54625 6.505 3.0925 6.01 2.625 5.5 C1.12364481 3.77390663 1.12364481 3.77390663 -1 4 C-0.67 2.68 -0.34 1.36 0 0 Z " fill="#797979" transform="translate(71,57)"/>
<path d="M0 0 C1.32 0.33 2.64 0.66 4 1 C4 1.99 4 2.98 4 4 C0.04 3.67 -3.92 3.34 -8 3 C-8 2.67 -8 2.34 -8 2 C-5.36 1.67 -2.72 1.34 0 1 C0 0.67 0 0.34 0 0 Z " fill="#505051" transform="translate(67,22)"/>
<path d="M0 0 C1.0625 1.8125 1.0625 1.8125 2 4 C1.67 4.99 1.34 5.98 1 7 C-2.875 5.25 -2.875 5.25 -4 3 C-2.68 3 -1.36 3 0 3 C0 2.01 0 1.02 0 0 Z " fill="#454545" transform="translate(72,36)"/>
</svg>
