<?xml version="1.0" encoding="UTF-8"?>
<svg version="1.1" xmlns="http://www.w3.org/2000/svg" width="126" height="126">
<path d="M0 0 C2.49757417 2.18443421 4.83827401 4.44354758 7.1484375 6.82421875 C7.79425781 7.46101563 8.44007812 8.0978125 9.10546875 8.75390625 C19.90538817 20.0949981 24.16038005 35.39117198 24.20996094 50.71875 C23.72655952 67.26182068 16.7946026 82.06642906 5.1484375 93.82421875 C-8.12302513 105.32352761 -23.65999219 110.55028466 -41.16015625 110.1015625 C-58.45432618 108.80221217 -72.23111347 101.30928452 -83.8515625 88.82421875 C-95.54753135 75.02125551 -99.17820874 58.50845691 -97.8515625 40.82421875 C-95.55341066 23.53979946 -86.45936679 9.47881604 -72.82421875 -1.13671875 C-50.94479905 -16.14467813 -21.24477294 -16.21005278 0 0 Z " fill="#FCFCFC" transform="translate(99.8515625,14.17578125)"/>
<path d="M0 0 C2.97 0 5.94 0 9 0 C9 3.96 9 7.92 9 12 C9.66 12 10.32 12 11 12 C11.2475 11.38125 11.495 10.7625 11.75 10.125 C13.30552932 7.48060015 14.07621471 6.92330062 17 6 C22.92904666 5.29655379 26.76651747 6.21153045 31.8828125 9.30078125 C36.31317147 12.85651215 39.21725046 17.65175137 41 23 C41.9684257 33.57913137 41.4183956 42.05521465 35 51 C28.9901039 57.81368879 21.1814912 62.33829566 12.1171875 63.30859375 C3.77329539 63.64033886 -1.4084672 62.16091615 -8 57 C-8.66 56.34 -9.32 55.68 -10 55 C-12.57061311 54.35232207 -12.57061311 54.35232207 -15 54 C-15.06058594 54.78246094 -15.12117188 55.56492188 -15.18359375 56.37109375 C-15.26738281 57.38300781 -15.35117187 58.39492187 -15.4375 59.4375 C-15.51871094 60.44683594 -15.59992187 61.45617187 -15.68359375 62.49609375 C-16 65 -16 65 -17 66 C-20.5 66.125 -20.5 66.125 -24 66 C-25.84473215 64.15526785 -25.21643526 61.28789953 -25.25 58.8125 C-25.19748777 52.81954201 -24.69355153 48.76529261 -20.38671875 44.34375 C-16.48196689 42.14532997 -12.26447766 42.95142523 -7.93164062 43.29296875 C-3.86454268 43.46830756 -2.27208697 43.22041574 0.94140625 40.6171875 C4.98948157 35.47067808 4.62496651 30.37952823 4 24 C3.16179716 21.9873939 3.16179716 21.9873939 2 20.25 C-1.58483589 14.34259437 -0.29037826 6.6464357 0 0 Z " fill="#F7F7F7" transform="translate(55,29)"/>
<path d="M0 0 C2.49757417 2.18443421 4.83827401 4.44354758 7.1484375 6.82421875 C7.79425781 7.46101563 8.44007812 8.0978125 9.10546875 8.75390625 C19.90538817 20.0949981 24.16038005 35.39117198 24.20996094 50.71875 C23.72655952 67.26182068 16.7946026 82.06642906 5.1484375 93.82421875 C-8.12302513 105.32352761 -23.65999219 110.55028466 -41.16015625 110.1015625 C-58.45432618 108.80221217 -72.23111347 101.30928452 -83.8515625 88.82421875 C-95.54753135 75.02125551 -99.17820874 58.50845691 -97.8515625 40.82421875 C-95.55341066 23.53979946 -86.45936679 9.47881604 -72.82421875 -1.13671875 C-50.94479905 -16.14467813 -21.24477294 -16.21005278 0 0 Z M-59.8515625 -2.17578125 C-60.60953125 -1.82515625 -61.3675 -1.47453125 -62.1484375 -1.11328125 C-77.26384942 6.3923026 -86.31047909 19.48478625 -91.6015625 35.02734375 C-94.45422787 45.40787608 -94.06017532 57.9403553 -89.8515625 67.82421875 C-89.449375 68.7884375 -89.0471875 69.75265625 -88.6328125 70.74609375 C-85.18352934 78.29619134 -80.74263263 84.01641463 -74.8515625 89.82421875 C-74.00464844 90.68660156 -74.00464844 90.68660156 -73.140625 91.56640625 C-62.91973823 101.18899721 -48.74535933 105.43265168 -34.9765625 105.04296875 C-19.54368813 103.96266754 -5.16736281 97.17087403 5.4921875 85.8828125 C16.98730115 71.59525379 19.8571547 55.66674642 18.1484375 37.82421875 C15.58050181 24.29206324 7.07270631 11.7854067 -3.86328125 3.55859375 C-19.75076929 -6.79031281 -42.27675739 -11.51623711 -59.8515625 -2.17578125 Z " fill="#050505" transform="translate(99.8515625,14.17578125)"/>
<path d="M0 0 C2.97 0 5.94 0 9 0 C9 3.96 9 7.92 9 12 C9.66 12 10.32 12 11 12 C11.2475 11.38125 11.495 10.7625 11.75 10.125 C13.30552932 7.48060015 14.07621471 6.92330062 17 6 C22.92904666 5.29655379 26.76651747 6.21153045 31.8828125 9.30078125 C36.31317147 12.85651215 39.21725046 17.65175137 41 23 C41.9684257 33.57913137 41.4183956 42.05521465 35 51 C28.9901039 57.81368879 21.1814912 62.33829566 12.1171875 63.30859375 C3.77329539 63.64033886 -1.4084672 62.16091615 -8 57 C-8.66 56.34 -9.32 55.68 -10 55 C-12.57061311 54.35232207 -12.57061311 54.35232207 -15 54 C-15.06058594 54.78246094 -15.12117188 55.56492188 -15.18359375 56.37109375 C-15.26738281 57.38300781 -15.35117187 58.39492187 -15.4375 59.4375 C-15.51871094 60.44683594 -15.59992187 61.45617187 -15.68359375 62.49609375 C-16 65 -16 65 -17 66 C-20.5 66.125 -20.5 66.125 -24 66 C-25.84473215 64.15526785 -25.21643526 61.28789953 -25.25 58.8125 C-25.19748777 52.81954201 -24.69355153 48.76529261 -20.38671875 44.34375 C-16.48196689 42.14532997 -12.26447766 42.95142523 -7.93164062 43.29296875 C-3.86454268 43.46830756 -2.27208697 43.22041574 0.94140625 40.6171875 C4.98948157 35.47067808 4.62496651 30.37952823 4 24 C3.16179716 21.9873939 3.16179716 21.9873939 2 20.25 C-1.58483589 14.34259437 -0.29037826 6.6464357 0 0 Z M12 15 C10.26260027 17.85315761 9.74694871 20.01573279 9.69140625 23.3359375 C9.66626953 24.15320312 9.64113281 24.97046875 9.61523438 25.8125 C9.5802404 27.51294791 9.54895538 29.21347642 9.52148438 30.9140625 C9.35870837 35.96408879 8.89793094 39.67332171 6 44 C2.5625 45.75 2.5625 45.75 -1 47 C-2.34013497 47.65288627 -3.67741528 48.31225595 -5 49 C-5.67154684 51.28341743 -5.67154684 51.28341743 -5 54 C-1.14102173 58.10293666 3.37055871 59.37609116 8.875 59.625 C16.91840381 59.24970878 23.01734807 56.10986994 28.875 50.6875 C35.48748427 43.3559276 36.6219851 37.43029009 36.31640625 27.50390625 C35.77949213 21.55807953 34.46888959 18.60878384 30.375 14.125 C23.76399872 9.96251771 18.03033356 9.55799167 12 15 Z " fill="#171717" transform="translate(55,29)"/>
<path d="M0 0 C2.97 0.495 2.97 0.495 6 1 C6.495 2.485 6.495 2.485 7 4 C5.68 4 4.36 4 3 4 C3 4.66 3 5.32 3 6 C4.32 5.67 5.64 5.34 7 5 C6.66210387 10.40633811 3.58644696 14.18216937 0 18 C-7.2635432 23.67420745 -13.88540755 24.7561736 -23 24 C-26.125 22.75 -26.125 22.75 -28 21 C-28.6171875 18.890625 -28.6171875 18.890625 -29 17 C-28.38511719 16.74605469 -27.77023438 16.49210937 -27.13671875 16.23046875 C-26.32847656 15.88628906 -25.52023438 15.54210937 -24.6875 15.1875 C-23.88699219 14.85105469 -23.08648437 14.51460937 -22.26171875 14.16796875 C-17.69423205 11.80928391 -16.14112691 8.5881291 -14 4 C-13.30132812 4.09539062 -12.60265625 4.19078125 -11.8828125 4.2890625 C-10.97273438 4.39992188 -10.06265625 4.51078125 -9.125 4.625 C-7.76761719 4.79902344 -7.76761719 4.79902344 -6.3828125 4.9765625 C-5.59648438 4.98429687 -4.81015625 4.99203125 -4 5 C-3.34 4.34 -2.68 3.68 -2 3 C0.125 2.375 0.125 2.375 2 2 C1.34 2 0.68 2 0 2 C0 1.34 0 0.68 0 0 Z " fill="#0D0D0D" transform="translate(81,62)"/>
<path d="M0 0 C0.33 0 0.66 0 1 0 C1.33 4.29 1.66 8.58 2 13 C2.99 13 3.98 13 5 13 C5 14.65 5 16.3 5 18 C4.01 18.33 3.02 18.66 2 19 C1.566875 19.9075 1.13375 20.815 0.6875 21.75 C-1.33632122 25.64772976 -3.3905912 27.52295474 -7 30 C-10.375 30.8125 -10.375 30.8125 -13 31 C-10.96197865 35.06024321 -10.96197865 35.06024321 -7 37 C1.67827161 37.72903089 8.0822971 36.71225585 15.25 31.75 C18.34653637 28.65346363 20.02150472 25.88089459 22 22 C22.66 22.66 23.32 23.32 24 24 C19.66264582 31.40964672 13.40980195 37.61722278 5 40 C-2.02821186 40.86516024 -7.77397908 40.68772174 -13.640625 36.4453125 C-15 35 -15 35 -15.5 32.1875 C-15.335 31.465625 -15.17 30.74375 -15 30 C-14.39671875 29.75765625 -13.7934375 29.5153125 -13.171875 29.265625 C-6.88044829 26.65285274 -6.88044829 26.65285274 -2 22 C-1.09166031 19.27498092 -0.81640015 17.37766029 -0.68359375 14.55078125 C-0.64169922 13.70322266 -0.59980469 12.85566406 -0.55664062 11.98242188 C-0.49766602 10.66081055 -0.49766602 10.66081055 -0.4375 9.3125 C-0.39431641 8.41982422 -0.35113281 7.52714844 -0.30664062 6.60742188 C-0.20064647 4.40509892 -0.09857949 2.20266527 0 0 Z " fill="#D6D6D6" transform="translate(65,48)"/>
<path d="M0 0 C0.33 0 0.66 0 1 0 C1.33 4.29 1.66 8.58 2 13 C2.99 13 3.98 13 5 13 C5 14.65 5 16.3 5 18 C4.01 18.33 3.02 18.66 2 19 C1.34 19.66 0.68 20.32 0 21 C0 14.07 0 7.14 0 0 Z " fill="#AAAAAA" transform="translate(65,48)"/>
<path d="M0 0 C0.66 0.66 1.32 1.32 2 2 C-1.23471811 7.52597677 -5.91472752 13.73044484 -12.25 15.69921875 C-12.8275 15.79847656 -13.405 15.89773437 -14 16 C-14 15.34 -14 14.68 -14 14 C-12.6403039 13.06983753 -11.23508116 12.20580596 -9.8125 11.375 C-5.03296955 8.32936861 -2.5302372 5.00961536 0 0 Z " fill="#DFDFDF" transform="translate(87,70)"/>
<path d="M0 0 C0 0.66 0 1.32 0 2 C-3.28519475 3.09506492 -5.73663415 3.09960608 -9.1875 3.0625 C-10.81751953 3.04896484 -10.81751953 3.04896484 -12.48046875 3.03515625 C-13.31191406 3.02355469 -14.14335938 3.01195313 -15 3 C-10.36847894 -0.08768071 -5.42751158 0 0 0 Z " fill="#CDCDCD" transform="translate(73,85)"/>
<path d="M0 0 C2.97 0.495 2.97 0.495 6 1 C6.33 1.99 6.66 2.98 7 4 C5.35 4.33 3.7 4.66 2 5 C2 4.01 2 3.02 2 2 C1.34 2 0.68 2 0 2 C0 1.34 0 0.68 0 0 Z " fill="#777777" transform="translate(81,62)"/>
<path d="M0 0 C-0.33 0.66 -0.66 1.32 -1 2 C-3.31 2 -5.62 2 -8 2 C-8 1.34 -8 0.68 -8 0 C-5.13822943 -1.43088528 -3.06624227 -0.59991697 0 0 Z " fill="#BABABA" transform="translate(64,28)"/>
</svg>
