<?xml version="1.0" encoding="UTF-8"?>
<svg version="1.1" xmlns="http://www.w3.org/2000/svg" width="126" height="126">
<path d="M0 0 C2.49757417 2.18443421 4.83827401 4.44354758 7.1484375 6.82421875 C7.79425781 7.46101563 8.44007812 8.0978125 9.10546875 8.75390625 C19.90538817 20.0949981 24.16038005 35.39117198 24.20996094 50.71875 C23.72655952 67.26182068 16.7946026 82.06642906 5.1484375 93.82421875 C-8.12302513 105.32352761 -23.65999219 110.55028466 -41.16015625 110.1015625 C-58.45432618 108.80221217 -72.23111347 101.30928452 -83.8515625 88.82421875 C-95.54753135 75.02125551 -99.17820874 58.50845691 -97.8515625 40.82421875 C-95.55341066 23.53979946 -86.45936679 9.47881604 -72.82421875 -1.13671875 C-50.94479905 -16.14467813 -21.24477294 -16.21005278 0 0 Z " fill="#FBFBFB" transform="translate(99.8515625,14.17578125)"/>
<path d="M0 0 C2.49757417 2.18443421 4.83827401 4.44354758 7.1484375 6.82421875 C7.79425781 7.46101563 8.44007812 8.0978125 9.10546875 8.75390625 C19.90538817 20.0949981 24.16038005 35.39117198 24.20996094 50.71875 C23.72655952 67.26182068 16.7946026 82.06642906 5.1484375 93.82421875 C-8.12302513 105.32352761 -23.65999219 110.55028466 -41.16015625 110.1015625 C-58.45432618 108.80221217 -72.23111347 101.30928452 -83.8515625 88.82421875 C-95.54753135 75.02125551 -99.17820874 58.50845691 -97.8515625 40.82421875 C-95.55341066 23.53979946 -86.45936679 9.47881604 -72.82421875 -1.13671875 C-50.94479905 -16.14467813 -21.24477294 -16.21005278 0 0 Z M-59.8515625 -2.17578125 C-60.60953125 -1.82515625 -61.3675 -1.47453125 -62.1484375 -1.11328125 C-77.26384942 6.3923026 -86.31047909 19.48478625 -91.6015625 35.02734375 C-94.45422787 45.40787608 -94.06017532 57.9403553 -89.8515625 67.82421875 C-89.449375 68.7884375 -89.0471875 69.75265625 -88.6328125 70.74609375 C-85.18352934 78.29619134 -80.74263263 84.01641463 -74.8515625 89.82421875 C-74.00464844 90.68660156 -74.00464844 90.68660156 -73.140625 91.56640625 C-62.91973823 101.18899721 -48.74535933 105.43265168 -34.9765625 105.04296875 C-19.54368813 103.96266754 -5.16736281 97.17087403 5.4921875 85.8828125 C16.98730115 71.59525379 19.8571547 55.66674642 18.1484375 37.82421875 C15.58050181 24.29206324 7.07270631 11.7854067 -3.86328125 3.55859375 C-19.75076929 -6.79031281 -42.27675739 -11.51623711 -59.8515625 -2.17578125 Z " fill="#050505" transform="translate(99.8515625,14.17578125)"/>
<path d="M0 0 C3.1875 1.6875 3.1875 1.6875 6 4 C7.11375 4.70125 8.2275 5.4025 9.375 6.125 C12.20289571 9.22221911 12.41336077 9.73303814 12.5 13.6875 C12.07372588 20.47743774 11.08104286 26.91306167 8 33 C7.33333333 36 7.33333333 36 8 39 C11.08300145 41.62055123 14.44109335 43.21269342 18.0625 44.9375 C24.69109354 48.17589684 28.41279792 53.15730023 31.1875 59.875 C32.09313359 63.35820613 32.14337004 66.41574907 32 70 C30.515 69.505 30.515 69.505 29 69 C28.90203125 68.27554688 28.8040625 67.55109375 28.703125 66.8046875 C27.63291618 59.88523391 26.62797387 54.71314799 20.73828125 50.30859375 C18.52422512 48.81054321 16.28937673 47.37949624 14 46 C14.33 46.99 14.66 47.98 15 49 C15.03954234 51.33299825 15.04401732 53.66708189 15 56 C16.32 56.66 17.64 57.32 19 58 C19.36190476 63.42857143 19.36190476 63.42857143 17.8125 65.875 C15.34492892 67.40659584 13.85480169 67.42822025 11 67 C9.1875 65.875 9.1875 65.875 8 64 C7.5625 61 7.5625 61 8 58 C9.33333333 57 10.66666667 56 12 55 C12.72637167 50.91415937 12.20834539 49.32814399 9.96875 45.80078125 C9.3190625 44.87652344 8.669375 43.95226562 8 43 C7.60675537 44.0669812 7.60675537 44.0669812 7.20556641 45.15551758 C6.01606381 48.37601301 4.8206061 51.59426578 3.625 54.8125 C3.00625 56.49182617 3.00625 56.49182617 2.375 58.20507812 C1.97539063 59.27822266 1.57578125 60.35136719 1.1640625 61.45703125 C0.79748535 62.44678955 0.4309082 63.43654785 0.05322266 64.45629883 C-1 67 -1 67 -3 70 C-6 69 -6 69 -7.04321289 67.14575195 C-7.50328735 65.95405396 -7.50328735 65.95405396 -7.97265625 64.73828125 C-8.31490234 63.86623047 -8.65714844 62.99417969 -9.00976562 62.09570312 C-9.35716797 61.17724609 -9.70457031 60.25878906 -10.0625 59.3125 C-10.41376953 58.41337891 -10.76503906 57.51425781 -11.12695312 56.58789062 C-12.87073173 52.0949412 -14.53041404 47.59150434 -16 43 C-18.2477975 45.05233685 -19.0022242 46.00667261 -20 49 C-19.38125 49.2475 -18.7625 49.495 -18.125 49.75 C-15.52957314 51.27672168 -15.06969682 52.21114759 -14 55 C-13.8046875 57.796875 -13.8046875 57.796875 -13.875 60.75 C-13.89304687 61.73484375 -13.91109375 62.7196875 -13.9296875 63.734375 C-13.95289062 64.48203125 -13.97609375 65.2296875 -14 66 C-16.475 66.495 -16.475 66.495 -19 67 C-19 66.34 -19 65.68 -19 65 C-18.01 65 -17.02 65 -16 65 C-16.28187936 63.20676747 -16.5758281 61.41542874 -16.875 59.625 C-17.11863281 58.12839844 -17.11863281 58.12839844 -17.3671875 56.6015625 C-17.7958802 53.8574885 -17.7958802 53.8574885 -20 52 C-22.57540213 52.16507646 -22.57540213 52.16507646 -25 53 C-26.21693876 55.43387753 -26.31959896 57.41838846 -26.5625 60.125 C-26.64628906 61.03507812 -26.73007812 61.94515625 -26.81640625 62.8828125 C-26.87699219 63.58148438 -26.93757813 64.28015625 -27 65 C-25.68 65.33 -24.36 65.66 -23 66 C-23.33 66.66 -23.66 67.32 -24 68 C-26.4375 67.625 -26.4375 67.625 -29 67 C-30.73552351 63.52895297 -30.46720147 59.79521193 -30 56 C-27.89753603 52.02033605 -25.28720424 49.05240393 -22 46 C-29.83111737 50.67541136 -29.83111737 50.67541136 -35 58 C-35.8719122 61.6438874 -36.49805087 65.2882183 -37 69 C-38.485 69.495 -38.485 69.495 -40 70 C-40.65383035 62.48095093 -38.44170329 55.95574608 -33.625 50.125 C-28.95283392 46.34277031 -24.15663425 43.47268505 -18.734375 40.9296875 C-16.81643362 40.00920043 -16.81643362 40.00920043 -15 38 C-15.22213308 34.66800385 -15.70878032 32.46109783 -17.5 29.625 C-19.48126912 26.15777903 -19.7405612 22.8985938 -20 19 C-20.14888672 17.89398438 -20.14888672 17.89398438 -20.30078125 16.765625 C-20.62013597 13.13374779 -20.5423751 10.86869418 -18.578125 7.72265625 C-13.13269213 1.28820246 -8.48916271 -1.20003871 0 0 Z " fill="#0E0F10" transform="translate(67,25)"/>
<path d="M0 0 C0.99 0.33 1.98 0.66 3 1 C2.505 1.86625 2.01 2.7325 1.5 3.625 C-0.10072578 7.226633 -0.75670766 9.13238306 0 13 C3.08300145 15.62055123 6.44109335 17.21269342 10.0625 18.9375 C16.69109354 22.17589684 20.41279792 27.15730023 23.1875 33.875 C24.09313359 37.35820613 24.14337004 40.41574907 24 44 C22.515 43.505 22.515 43.505 21 43 C20.90203125 42.27554688 20.8040625 41.55109375 20.703125 40.8046875 C19.63291618 33.88523391 18.62797387 28.71314799 12.73828125 24.30859375 C10.52422512 22.81054321 8.28937673 21.37949624 6 20 C6.495 21.485 6.495 21.485 7 23 C7.03954234 25.33299825 7.04401732 27.66708189 7 30 C8.32 30.66 9.64 31.32 11 32 C11.36190476 37.42857143 11.36190476 37.42857143 9.8125 39.875 C7.34492892 41.40659584 5.85480169 41.42822025 3 41 C1.1875 39.875 1.1875 39.875 0 38 C-0.4375 35 -0.4375 35 0 32 C1.33333333 31 2.66666667 30 4 29 C4.72637167 24.91415937 4.20834539 23.32814399 1.96875 19.80078125 C1.3190625 18.87652344 0.669375 17.95226562 0 17 C-0.39324463 18.0669812 -0.39324463 18.0669812 -0.79443359 19.15551758 C-1.98393619 22.37601301 -3.1793939 25.59426578 -4.375 28.8125 C-4.7875 29.93205078 -5.2 31.05160156 -5.625 32.20507812 C-6.02460937 33.27822266 -6.42421875 34.35136719 -6.8359375 35.45703125 C-7.20251465 36.44678955 -7.5690918 37.43654785 -7.94677734 38.45629883 C-9 41 -9 41 -11 44 C-14 43 -14 43 -15.04321289 41.14575195 C-15.50328735 39.95405396 -15.50328735 39.95405396 -15.97265625 38.73828125 C-16.31490234 37.86623047 -16.65714844 36.99417969 -17.00976562 36.09570312 C-17.35716797 35.17724609 -17.70457031 34.25878906 -18.0625 33.3125 C-18.41376953 32.41337891 -18.76503906 31.51425781 -19.12695312 30.58789062 C-20.87073173 26.0949412 -22.53041404 21.59150434 -24 17 C-26.2477975 19.05233685 -27.0022242 20.00667261 -28 23 C-27.38125 23.2475 -26.7625 23.495 -26.125 23.75 C-23.52957314 25.27672168 -23.06969682 26.21114759 -22 29 C-21.8046875 31.796875 -21.8046875 31.796875 -21.875 34.75 C-21.89304687 35.73484375 -21.91109375 36.7196875 -21.9296875 37.734375 C-21.95289062 38.48203125 -21.97609375 39.2296875 -22 40 C-24.475 40.495 -24.475 40.495 -27 41 C-27 40.34 -27 39.68 -27 39 C-26.01 39 -25.02 39 -24 39 C-24.28187936 37.20676747 -24.5758281 35.41542874 -24.875 33.625 C-25.11863281 32.12839844 -25.11863281 32.12839844 -25.3671875 30.6015625 C-25.7958802 27.8574885 -25.7958802 27.8574885 -28 26 C-30.57540213 26.16507646 -30.57540213 26.16507646 -33 27 C-34.21693876 29.43387753 -34.31959896 31.41838846 -34.5625 34.125 C-34.64628906 35.03507812 -34.73007812 35.94515625 -34.81640625 36.8828125 C-34.87699219 37.58148438 -34.93757813 38.28015625 -35 39 C-33.68 39.33 -32.36 39.66 -31 40 C-31.33 40.66 -31.66 41.32 -32 42 C-34.4375 41.625 -34.4375 41.625 -37 41 C-38.73552351 37.52895297 -38.46720147 33.79521193 -38 30 C-35.89753603 26.02033605 -33.28720424 23.05240393 -30 20 C-37.83111737 24.67541136 -37.83111737 24.67541136 -43 32 C-43.8719122 35.6438874 -44.49805087 39.2882183 -45 43 C-46.485 43.495 -46.485 43.495 -48 44 C-48.65383035 36.48095093 -46.44170329 29.95574608 -41.625 24.125 C-36.98187071 20.36627629 -32.24028452 17.51279348 -26.83203125 15.02734375 C-24.91586641 14.0700825 -24.91586641 14.0700825 -23.44921875 12.37890625 C-22 11 -22 11 -19 11 C-18.01 12.485 -18.01 12.485 -17 14 C-16.01 13.67 -15.02 13.34 -14 13 C-12.9275 12.87625 -11.855 12.7525 -10.75 12.625 C-5.67792588 11.28398253 -3.77142779 6.58718862 -1.28515625 2.3359375 C-0.86105469 1.56507812 -0.43695313 0.79421875 0 0 Z " fill="#161718" transform="translate(75,51)"/>
<path d="M0 0 C2.3125 0.6875 2.3125 0.6875 3.3125 1.6875 C3.35342937 4.02047433 3.35491723 6.35455225 3.3125 8.6875 C3.9725 8.6875 4.6325 8.6875 5.3125 8.6875 C4.64857808 12.16904178 3.25469623 14.78383962 1.4375 17.8125 C0.66792969 19.11574219 0.66792969 19.11574219 -0.1171875 20.4453125 C-1.6875 22.6875 -1.6875 22.6875 -4.6875 24.6875 C-7.5625 25.125 -7.5625 25.125 -10.6875 24.6875 C-15.02380429 21.30306739 -18.26332446 16.61837621 -20.6875 11.6875 C-20.6875 10.6975 -20.6875 9.7075 -20.6875 8.6875 C-20.0275 8.6875 -19.3675 8.6875 -18.6875 8.6875 C-18.6875 6.3775 -18.6875 4.0675 -18.6875 1.6875 C-17.45773438 1.72230469 -17.45773438 1.72230469 -16.203125 1.7578125 C-15.12546875 1.77585938 -14.0478125 1.79390625 -12.9375 1.8125 C-11.87015625 1.83570313 -10.8028125 1.85890625 -9.703125 1.8828125 C-5.95787215 1.64024431 -3.66764745 -0.42647063 0 0 Z " fill="#F8F8F8" transform="translate(70.6875,39.3125)"/>
<path d="M0 0 C2.6875 1.8125 2.6875 1.8125 5 4 C5.763125 4.61875 6.52625 5.2375 7.3125 5.875 C9.53727949 8.67657417 9.3167355 10.51590945 9 14 C8.29875 13.154375 7.5975 12.30875 6.875 11.4375 C4.23866788 8.65703453 4.23866788 8.65703453 0.9375 9.0625 C-1.90573855 9.87365575 -1.90573855 9.87365575 -4 11.0625 C-7.74055102 12.81588329 -11.06288187 12.32595413 -14.875 11 C-15.57625 10.67 -16.2775 10.34 -17 10 C-17.66 11.32 -18.32 12.64 -19 14 C-19.48238394 9.94797487 -19.18904731 8.29216402 -16.9375 4.8125 C-12.11701167 -0.34745934 -6.79819308 -1.88838697 0 0 Z " fill="#F6F7F7" transform="translate(68,28)"/>
<path d="M0 0 C-0.639375 0.598125 -1.27875 1.19625 -1.9375 1.8125 C-4.20310389 3.90810337 -4.20310389 3.90810337 -5 7 C-4.38125 7.2475 -3.7625 7.495 -3.125 7.75 C-0.52957314 9.27672168 -0.06969682 10.21114759 1 13 C1.1953125 15.796875 1.1953125 15.796875 1.125 18.75 C1.10695313 19.73484375 1.08890625 20.7196875 1.0703125 21.734375 C1.04710938 22.48203125 1.02390625 23.2296875 1 24 C-0.65 24.33 -2.3 24.66 -4 25 C-4 24.34 -4 23.68 -4 23 C-3.01 23 -2.02 23 -1 23 C-1.28187936 21.20676747 -1.5758281 19.41542874 -1.875 17.625 C-2.11863281 16.12839844 -2.11863281 16.12839844 -2.3671875 14.6015625 C-2.7958802 11.8574885 -2.7958802 11.8574885 -5 10 C-7.57540213 10.16507646 -7.57540213 10.16507646 -10 11 C-11.21693876 13.43387753 -11.31959896 15.41838846 -11.5625 18.125 C-11.64628906 19.03507812 -11.73007812 19.94515625 -11.81640625 20.8828125 C-11.87699219 21.58148438 -11.93757813 22.28015625 -12 23 C-10.68 23.33 -9.36 23.66 -8 24 C-8.33 24.66 -8.66 25.32 -9 26 C-11.4375 25.625 -11.4375 25.625 -14 25 C-15.73552351 21.52895297 -15.46720147 17.79521193 -15 14 C-12.89753603 10.02033605 -10.28720424 7.05240393 -7 4 C-14.83111737 8.67541136 -14.83111737 8.67541136 -20 16 C-20.8719122 19.6438874 -21.49805087 23.2882183 -22 27 C-22.99 27.33 -23.98 27.66 -25 28 C-25.65383035 20.48095093 -23.44170329 13.95574608 -18.625 8.125 C-6.08333333 -2.02777778 -6.08333333 -2.02777778 0 0 Z " fill="#18191A" transform="translate(52,67)"/>
<path d="M0 0 C0.7425 0.495 0.7425 0.495 1.5 1 C4.97528029 2.39011212 8.29826965 2.49163606 12 2 C14.19641396 1.04840708 14.19641396 1.04840708 16 0 C13.94235079 6.45353615 11.57616518 12.7361263 9 19 C8.34 19 7.68 19 7 19 C5.82905995 16.2100561 4.66309073 13.41821403 3.5 10.625 C2.99919922 9.43390625 2.99919922 9.43390625 2.48828125 8.21875 C2.17246094 7.45820312 1.85664062 6.69765625 1.53125 5.9140625 C1.23798828 5.2123291 0.94472656 4.5105957 0.64257812 3.78759766 C0 2 0 2 0 0 Z " fill="#F5F5F5" transform="translate(55,71)"/>
<path d="M0 0 C0.99 0.33 1.98 0.66 3 1 C0.36 7.6 -2.28 14.2 -5 21 C-6.32 21 -7.64 21 -9 21 C-10.06101016 18.5902481 -11.09873228 16.17450146 -12.125 13.75 C-12.42792969 13.06808594 -12.73085938 12.38617188 -13.04296875 11.68359375 C-15.18359806 6.55603983 -15.18359806 6.55603983 -14.1796875 3.515625 C-13.79039063 3.01546875 -13.40109375 2.5153125 -13 2 C-12.16260219 4.1234016 -11.33019717 6.2487728 -10.5 8.375 C-10.0359375 9.55835937 -9.571875 10.74171875 -9.09375 11.9609375 C-8 15 -8 15 -8 17 C-7.34 17 -6.68 17 -6 17 C-5.81824219 16.35933594 -5.63648437 15.71867187 -5.44921875 15.05859375 C-3.93729955 9.85604103 -2.24999329 4.92855673 0 0 Z " fill="#202122" transform="translate(70,73)"/>
<path d="M0 0 C3.1875 1.6875 3.1875 1.6875 6 4 C6.56074219 4.43183594 7.12148437 4.86367188 7.69921875 5.30859375 C9.18488643 6.4756567 10.59905769 7.73248076 12 9 C12 9.66 12 10.32 12 11 C9 11 9 11 7.5078125 9.671875 C7.01023437 9.12015625 6.51265625 8.5684375 6 8 C3.1924414 5.3524577 0.67889058 3.20438668 -3.24609375 2.7265625 C-9.01947603 3.09652629 -11.96377814 4.96377814 -16 9 C-16.928125 9.8971875 -16.928125 9.8971875 -17.875 10.8125 C-18.24625 11.204375 -18.6175 11.59625 -19 12 C-19.33 11.34 -19.66 10.68 -20 10 C-18.92492371 8.70145279 -17.83956264 7.41141639 -16.75 6.125 C-16.14671875 5.40570312 -15.5434375 4.68640625 -14.921875 3.9453125 C-10.57249993 -0.45710373 -5.94057346 -0.83976693 0 0 Z " fill="#1C1D1E" transform="translate(67,25)"/>
<path d="M0 0 C1.98 0.66 3.96 1.32 6 2 C6.12375 2.804375 6.2475 3.60875 6.375 4.4375 C6.58125 5.283125 6.7875 6.12875 7 7 C7.66 7.33 8.32 7.66 9 8 C7.22510401 10.24197388 6.37824511 10.94326323 3.5 11.375 C1 11 1 11 -0.8125 9.875 C-2.52849028 7.16554166 -2.333728 5.13704316 -2 2 C-1.34 1.34 -0.68 0.68 0 0 Z " fill="#222324" transform="translate(77,81)"/>
<path d="M0 0 C4.44209835 0.50766838 6.80450885 1.88644452 10 5 C14.40656689 11.26036399 16.3079297 17.30175748 16 25 C15.01 24.67 14.02 24.34 13 24 C12.90203125 23.27554688 12.8040625 22.55109375 12.703125 21.8046875 C11.68709019 15.23549694 10.74215489 9.88105689 5.18359375 5.6015625 C3.45912153 4.39617383 1.72988266 3.19761107 0 2 C0 1.34 0 0.68 0 0 Z " fill="#1A1B1C" transform="translate(83,70)"/>
<path d="M0 0 C0.70125 0.495 1.4025 0.99 2.125 1.5 C5.47730606 3.24902925 7.26724559 3.4665943 11 3 C13.81780534 1.61114752 13.81780534 1.61114752 16 0 C15.65198447 2.57531492 15.29035995 4.54832896 13.875 6.75 C10.88111599 8.74592267 8.57186665 9 5 9 C2.0625 6.8125 2.0625 6.8125 0 4 C0 2.68 0 1.36 0 0 Z " fill="#EFEFEF" transform="translate(55,63)"/>
<path d="M0 0 C0.66 0 1.32 0 2 0 C2.09038099 5.15171623 1.84681133 9.91913204 1 15 C0.34 15 -0.32 15 -1 15 C-1 14.01 -1 13.02 -1 12 C-1.66 12 -2.32 12 -3 12 C-3 9.03 -3 6.06 -3 3 C-2.01 3.495 -2.01 3.495 -1 4 C-0.67 2.68 -0.34 1.36 0 0 Z " fill="#0E0F10" transform="translate(77,36)"/>
<path d="M0 0 C0 3.3 0 6.6 0 10 C1.32 10.33 2.64 10.66 4 11 C3.67 11.66 3.34 12.32 3 13 C0.5625 12.625 0.5625 12.625 -2 12 C-3.20272819 9.59454362 -3.10071472 8.05003047 -3.0625 5.375 C-3.05347656 4.55773437 -3.04445312 3.74046875 -3.03515625 2.8984375 C-3.02355469 2.27195312 -3.01195312 1.64546875 -3 1 C-1 0 -1 0 0 0 Z " fill="#303132" transform="translate(40,80)"/>
<path d="M0 0 C3 3 3 3 3.1875 6.6875 C3.125625 7.780625 3.06375 8.87375 3 10 C4.32 10.66 5.64 11.32 7 12 C7 13.65 7 15.3 7 17 C6.34 17 5.68 17 5 17 C4.731875 16.195625 4.46375 15.39125 4.1875 14.5625 C3.795625 13.716875 3.40375 12.87125 3 12 C2.01 11.67 1.02 11.34 0 11 C0 7.37 0 3.74 0 0 Z " fill="#0B0C0D" transform="translate(79,71)"/>
<path d="M0 0 C1.65 0 3.3 0 5 0 C5.38218767 1.65614657 5.71395102 3.32457024 6 5 C5 6 5 6 2.4375 6.0625 C1.2309375 6.0315625 1.2309375 6.0315625 0 6 C-1.125 2.25 -1.125 2.25 0 0 Z " fill="#ECECEC" transform="translate(78,83)"/>
<path d="M0 0 C0.33 0.66 0.66 1.32 1 2 C0.34 2.66 -0.32 3.32 -1 4 C-2.11375 3.7525 -2.11375 3.7525 -3.25 3.5 C-6.70070053 2.8725999 -8.78294427 3.72814076 -12 5 C-12 4.01 -12 3.02 -12 2 C-7.58184343 -0.6298551 -5.00080289 -1.51187064 0 0 Z " fill="#282929" transform="translate(74,37)"/>
<path d="M0 0 C3.63 0.66 7.26 1.32 11 2 C11 2.66 11 3.32 11 4 C4.375 4.125 4.375 4.125 1 3 C0.67 3.99 0.34 4.98 0 6 C-0.66 6 -1.32 6 -2 6 C-1.34 4.02 -0.68 2.04 0 0 Z " fill="#181819" transform="translate(51,38)"/>
<path d="M0 0 C-1.27894091 3.83682273 -2.52676247 4.07042359 -6 6 C-8.00580329 7.32458708 -10.00715862 8.6559907 -12 10 C-10.58426179 6.60812721 -8.95769034 4.90302459 -6 2.75 C-5.29875 2.22921875 -4.5975 1.7084375 -3.875 1.171875 C-2 0 -2 0 0 0 Z " fill="#D8D8D8" transform="translate(45,71)"/>
<path d="M0 0 C0.99 0.33 1.98 0.66 3 1 C2.525625 1.886875 2.05125 2.77375 1.5625 3.6875 C0.20262851 6.57042756 -0.54060386 8.87610623 -1 12 C-1.33 12 -1.66 12 -2 12 C-3.35384615 5.72307692 -3.35384615 5.72307692 -1.5625 2.0625 C-1.046875 1.381875 -0.53125 0.70125 0 0 Z " fill="#373838" transform="translate(75,51)"/>
<path d="M0 0 C0 0.66 0 1.32 0 2 C-1.63604196 3.37073786 -3.30678061 4.70055256 -5 6 C-6.0173873 6.98230498 -7.02596117 7.97469597 -8 9 C-8.33 8.34 -8.66 7.68 -9 7 C-8.07347299 5.82460004 -7.13336613 4.65989423 -6.1875 3.5 C-5.66542969 2.8503125 -5.14335938 2.200625 -4.60546875 1.53125 C-3 0 -3 0 0 0 Z " fill="#161718" transform="translate(56,28)"/>
<path d="M0 0 C0.66 0 1.32 0 2 0 C3.4783226 2.95664519 3.06032783 5.74229737 3 9 C2.01 8.67 1.02 8.34 0 8 C0 5.36 0 2.72 0 0 Z " fill="#313233" transform="translate(96,86)"/>
<path d="M0 0 C0 2.31 0 4.62 0 7 C-0.99 7.33 -1.98 7.66 -3 8 C-3 5.69 -3 3.38 -3 1 C-1 0 -1 0 0 0 Z " fill="#363737" transform="translate(30,87)"/>
<path d="M0 0 C-1.125 1.5 -1.125 1.5 -3 3 C-6.1875 3.1875 -6.1875 3.1875 -9 3 C-8.67 2.01 -8.34 1.02 -8 0 C-4.71303767 -0.79953138 -3.28976808 -1.09658936 0 0 Z " fill="#3D3E3E" transform="translate(69,64)"/>
<path d="M0 0 C0.66 0 1.32 0 2 0 C2 0.66 2 1.32 2 2 C2.99 2 3.98 2 5 2 C4.67 3.32 4.34 4.64 4 6 C3.01 5.67 2.02 5.34 1 5 C0.67 3.35 0.34 1.7 0 0 Z " fill="#161718" transform="translate(60,89)"/>
<path d="M0 0 C1.2077558 3.62326739 0.54311128 4.64146369 -1 8 C-2.32 7.34 -3.64 6.68 -5 6 C-4.34 6 -3.68 6 -3 6 C-2.87625 5.195625 -2.7525 4.39125 -2.625 3.5625 C-2.41875 2.716875 -2.2125 1.87125 -2 1 C-1.34 0.67 -0.68 0.34 0 0 Z " fill="#28292A" transform="translate(67,84)"/>
<path d="M0 0 C2.475 0.495 2.475 0.495 5 1 C5.33 2.32 5.66 3.64 6 5 C4.02 4.01 2.04 3.02 0 2 C0 1.34 0 0.68 0 0 Z " fill="#202122" transform="translate(83,70)"/>
<path d="M0 0 C-0.33 0.66 -0.66 1.32 -1 2 C-3.4375 2.75 -3.4375 2.75 -6 3 C-6.66 2.34 -7.32 1.68 -8 1 C-4.93251126 -0.86240388 -3.40254489 -1.2151946 0 0 Z " fill="#2A2B2C" transform="translate(62,26)"/>
</svg>
