<?xml version="1.0" encoding="UTF-8"?>
<svg version="1.1" xmlns="http://www.w3.org/2000/svg" width="126" height="126">
<path d="M0 0 C2.49757417 2.18443421 4.83827401 4.44354758 7.1484375 6.82421875 C7.79425781 7.46101563 8.44007812 8.0978125 9.10546875 8.75390625 C19.90538817 20.0949981 24.16038005 35.39117198 24.20996094 50.71875 C23.72655952 67.26182068 16.7946026 82.06642906 5.1484375 93.82421875 C-8.12302513 105.32352761 -23.65999219 110.55028466 -41.16015625 110.1015625 C-58.45432618 108.80221217 -72.23111347 101.30928452 -83.8515625 88.82421875 C-95.54753135 75.02125551 -99.17820874 58.50845691 -97.8515625 40.82421875 C-95.55341066 23.53979946 -86.45936679 9.47881604 -72.82421875 -1.13671875 C-50.94479905 -16.14467813 -21.24477294 -16.21005278 0 0 Z " fill="#FCFCFC" transform="translate(99.8515625,14.17578125)"/>
<path d="M0 0 C2.75329021 1.79562405 4.52627461 3.05254922 6 6 C6.50460829 13.82142857 6.50460829 13.82142857 3 18 C1.33640919 21.32254111 1.33640919 21.32254111 1 25 C3.17345127 28.25814691 3.17345127 28.25814691 6 31 C7.7919004 33.94776789 8.25566026 36.2656068 8.4375 39.6875 C8.92163997 45.43772386 9.85033672 51.54324196 13.75 56 C15.50640558 58.81024893 15.12096578 61.17634534 14.65234375 64.3671875 C13.64151696 68.44681178 11.98775162 72.18817704 10.25390625 76.0078125 C8.87091725 79.30802924 7.92582614 82.54645318 7 86 C4.16660035 86.02724423 1.33346883 86.04695589 -1.5 86.0625 C-2.29148437 86.07087891 -3.08296875 86.07925781 -3.8984375 86.08789062 C-17.76184658 86.14470788 -17.76184658 86.14470788 -20.65625 83.46875 C-22.86423871 78.31677634 -23.90665741 73.60862489 -23 68 C-22.34428432 66.66124716 -21.67868059 65.32725841 -21 64 C-21.19964009 59.90737822 -22.56265838 56.41769339 -24 52.625 C-25.75073539 47.92465608 -26.68230473 44.00370056 -27 39 C-27.09796875 38.19691406 -27.1959375 37.39382812 -27.296875 36.56640625 C-27.60463319 32.67799992 -27.66581824 30.05495598 -25.54296875 26.69140625 C-23.78111338 24.66990904 -21.96546341 22.82236757 -20 21 C-16.58838965 17.7322046 -15.94788337 15.90136464 -15.75 11.1875 C-15.39878264 7.26746105 -15.13346334 6.17209747 -12.625 2.9375 C-8.44384729 -0.1485889 -5.11326122 -0.44079838 0 0 Z " fill="#222222" transform="translate(69,20)"/>
<path d="M0 0 C2.49757417 2.18443421 4.83827401 4.44354758 7.1484375 6.82421875 C7.79425781 7.46101563 8.44007812 8.0978125 9.10546875 8.75390625 C19.90538817 20.0949981 24.16038005 35.39117198 24.20996094 50.71875 C23.72655952 67.26182068 16.7946026 82.06642906 5.1484375 93.82421875 C-8.12302513 105.32352761 -23.65999219 110.55028466 -41.16015625 110.1015625 C-58.45432618 108.80221217 -72.23111347 101.30928452 -83.8515625 88.82421875 C-95.54753135 75.02125551 -99.17820874 58.50845691 -97.8515625 40.82421875 C-95.55341066 23.53979946 -86.45936679 9.47881604 -72.82421875 -1.13671875 C-50.94479905 -16.14467813 -21.24477294 -16.21005278 0 0 Z M-59.8515625 -2.17578125 C-60.60953125 -1.82515625 -61.3675 -1.47453125 -62.1484375 -1.11328125 C-77.26384942 6.3923026 -86.31047909 19.48478625 -91.6015625 35.02734375 C-94.45422787 45.40787608 -94.06017532 57.9403553 -89.8515625 67.82421875 C-89.449375 68.7884375 -89.0471875 69.75265625 -88.6328125 70.74609375 C-85.18352934 78.29619134 -80.74263263 84.01641463 -74.8515625 89.82421875 C-74.00464844 90.68660156 -74.00464844 90.68660156 -73.140625 91.56640625 C-62.91973823 101.18899721 -48.74535933 105.43265168 -34.9765625 105.04296875 C-19.54368813 103.96266754 -5.16736281 97.17087403 5.4921875 85.8828125 C16.98730115 71.59525379 19.8571547 55.66674642 18.1484375 37.82421875 C15.58050181 24.29206324 7.07270631 11.7854067 -3.86328125 3.55859375 C-19.75076929 -6.79031281 -42.27675739 -11.51623711 -59.8515625 -2.17578125 Z " fill="#050505" transform="translate(99.8515625,14.17578125)"/>
<path d="M0 0 C0.51949219 0.44472656 1.03898437 0.88945313 1.57421875 1.34765625 C2.27160156 1.91355469 2.96898437 2.47945312 3.6875 3.0625 C4.37199219 3.63097656 5.05648437 4.19945312 5.76171875 4.78515625 C7.98661551 6.26979951 7.98661551 6.26979951 10.76953125 5.68359375 C11.50558594 5.45800781 12.24164063 5.23242188 13 5 C17.62133526 10.69414523 19.68454718 14.72029767 19.2109375 22.12890625 C19.14132813 22.74636719 19.07171875 23.36382812 19 24 C18.154375 23.87625 17.30875 23.7525 16.4375 23.625 C12.15642095 24.0920268 10.64984639 25.60221516 7.61328125 28.4921875 C5.02424626 30.91196355 3.60227978 32 0 32 C0 27.71 0 23.42 0 19 C-0.66 19 -1.32 19 -2 19 C-1.91298828 20.57201172 -1.91298828 20.57201172 -1.82421875 22.17578125 C-1.77731869 23.554643 -1.73181878 24.93355287 -1.6875 26.3125 C-1.6246582 27.34793945 -1.6246582 27.34793945 -1.56054688 28.40429688 C-1.51171875 30.42578125 -1.51171875 30.42578125 -2 34 C-4.51953125 35.98046875 -4.51953125 35.98046875 -7 37 C-7.84686259 34.64995631 -8.67750196 32.2960687 -9.5 29.9375 C-9.73847656 29.28072266 -9.97695313 28.62394531 -10.22265625 27.94726562 C-12.48669526 21.38155249 -12.88551798 15.49241546 -10 9 C-8 6.625 -8 6.625 -6 5 C-5.34 5 -4.68 5 -4 5 C-2.61767557 3.37373596 -1.28062485 1.7074998 0 0 Z " fill="#F6F6F6" transform="translate(56,41)"/>
<path d="M0 0 C0.495 0.391875 0.99 0.78375 1.5 1.1875 C1.5 1.5175 1.5 1.8475 1.5 2.1875 C-1.14 2.8475 -3.78 3.5075 -6.5 4.1875 C-6.88063221 6.5135857 -7.21269945 8.84805264 -7.5 11.1875 C-6.3963377 12.51640384 -6.3963377 12.51640384 -3.625 12.3125 C-0.46787587 12.33126866 -0.46787587 12.33126866 2.5 11.1875 C1.9436138 15.49949308 0.29480289 19.02776456 -1.5625 22.90625 C-2.55484967 25.32096753 -3.0658238 27.61862412 -3.5 30.1875 C-8.50210148 30.24681346 -13.49811772 30.24224697 -18.5 30.1875 C-19.93279297 30.18169922 -19.93279297 30.18169922 -21.39453125 30.17578125 C-23.75 30.0625 -23.75 30.0625 -27.5 29.1875 C-30.7392157 25.26117794 -30.95411022 21.1687423 -30.8046875 16.24609375 C-30.40939608 13.57534276 -29.43829234 12.04503016 -27.5 10.1875 C-26.77039062 10.40921875 -26.04078125 10.6309375 -25.2890625 10.859375 C-21.76652733 11.2737909 -20.71006654 10.48342431 -17.875 8.4375 C-17.11960937 7.90640625 -16.36421875 7.3753125 -15.5859375 6.828125 C-13.51761333 5.27930859 -13.51761333 5.27930859 -11.97265625 3.59765625 C-8.80836248 0.56765611 -4.21335408 -1.36934008 0 0 Z " fill="#F8F8F8" transform="translate(78.5,73.8125)"/>
<path d="M0 0 C2.33524782 2.25740623 4.18705073 4.2805761 6 7 C9.25543229 6.65120368 10.01873107 5.97866739 12.25 3.4375 C13.11625 2.2309375 13.11625 2.2309375 14 1 C15 4 15 4 14.25 5.8125 C13.7042876 8.33658881 13.7042876 8.33658881 16.3125 11 C16.76238281 11.474375 17.21226563 11.94875 17.67578125 12.4375 C20.42398346 15.68021647 21.21459087 18.49275555 21.4375 22.6875 C21.92163997 28.43772386 22.85033672 34.54324196 26.75 39 C28.50640558 41.81024893 28.12096578 44.17634534 27.65234375 47.3671875 C26.64151696 51.44681178 24.98775162 55.18817704 23.25390625 59.0078125 C21.87091725 62.30802924 20.92582614 65.54645318 20 69 C17.16660035 69.02724423 14.33346883 69.04695589 11.5 69.0625 C10.70851563 69.07087891 9.91703125 69.07925781 9.1015625 69.08789062 C3.97736686 69.10889143 -0.96784756 69.02424342 -6 68 C-7.95167902 65.78845067 -8.15646126 63.89966443 -9 61 C-8.01 60.505 -8.01 60.505 -7 60 C-6.34 61.65 -5.68 63.3 -5 65 C2.92 65.66 10.84 66.32 19 67 C19.33 64.36 19.66 61.72 20 59 C20.97265625 56.5390625 20.97265625 56.5390625 22.0625 54.625 C23.62659302 51.97330053 23.62659302 51.97330053 24 49 C23.01 49.495 23.01 49.495 22 50 C19 50.1875 19 50.1875 16 50 C15.34 49.34 14.68 48.68 14 48 C14.1875 44.5 14.1875 44.5 15 41 C17.91765 39.0549 19.62537285 38.54723683 23 38 C19.41440251 36.80480084 18.80277556 37.25469086 15.5 38.8125 C14.33984375 39.34810547 14.33984375 39.34810547 13.15625 39.89453125 C10.80128127 41.05013633 10.80128127 41.05013633 8 43 C8.350625 42.278125 8.70125 41.55625 9.0625 40.8125 C10.10409017 37.6877295 9.89096572 36.11838004 9 33 C9.66 33.99 10.32 34.98 11 36 C13.05925139 36.72382467 13.05925139 36.72382467 15 37 C14.34 35.02 13.68 33.04 13 31 C12.01 31.33 11.02 31.66 10 32 C10.6875 30.0625 10.6875 30.0625 12 28 C14.87939419 27.06419689 16.25509788 26.62754894 19 28 C18.8449918 21.12327256 17.96470753 15.12529106 13 10 C10.91449491 9.2469041 10.91449491 9.2469041 9 9 C9 11.31 9 13.62 9 16 C8.67 16 8.34 16 8 16 C7.95875 15.113125 7.9175 14.22625 7.875 13.3125 C6.67871446 8.78370473 4.73728113 7.70356508 1 5 C-0.99983534 5.79117904 -0.99983534 5.79117904 -3 7 C-3.33 7.99 -3.66 8.98 -4 10 C-4.99 9.34 -5.98 8.68 -7 8 C-6.21625 7.79375 -5.4325 7.5875 -4.625 7.375 C-1.69083714 6.19323388 -1.69083714 6.19323388 -0.6875 2.875 C-0.460625 1.92625 -0.23375 0.9775 0 0 Z " fill="#1F1F1F" transform="translate(56,37)"/>
<path d="M0 0 C0.66 0.33 1.32 0.66 2 1 C1.34 1.66 0.68 2.32 0 3 C0.33 3.66 0.66 4.32 1 5 C0.01 6.485 0.01 6.485 -1 8 C-3.52240988 17.08067555 -0.92474857 24.31715267 2 33 C4.0745356 33.1490712 4.0745356 33.1490712 6 32 C6.31241371 29.45058627 6.51303421 26.99638487 6.625 24.4375 C6.68300781 23.37112305 6.68300781 23.37112305 6.7421875 22.28320312 C6.83671783 20.52257575 6.91945817 18.76132272 7 17 C7.66 17 8.32 17 9 17 C9 21.29 9 25.58 9 30 C10.588125 29.195625 12.17625 28.39125 13.8125 27.5625 C16.54602182 26.17798895 19.08951208 24.97016264 22 24 C22.66 26.31 23.32 28.62 24 31 C22.35 30.67 20.7 30.34 19 30 C19.33 30.99 19.66 31.98 20 33 C17.27272084 38.34092169 14.34906898 40.65391711 9 43 C6.0625 42.75 6.0625 42.75 4 42 C1.89172945 45.16240582 1.66182535 46.50657469 1.375 50.1875 C1.30023438 51.08855469 1.22546875 51.98960938 1.1484375 52.91796875 C1.07496094 53.94857422 1.07496094 53.94857422 1 55 C0.34 54.67 -0.32 54.34 -1 54 C-1.05447047 52.58376784 -1.09300508 51.16691809 -1.125 49.75 C-1.14820313 48.96109375 -1.17140625 48.1721875 -1.1953125 47.359375 C-0.98156678 44.77732671 -0.19740577 43.26651806 1 41 C0.80035991 36.90737822 -0.56265838 33.41769339 -2 29.625 C-3.75073539 24.92465608 -4.68230473 21.00370056 -5 16 C-5.07476562 15.17371094 -5.14953125 14.34742188 -5.2265625 13.49609375 C-5.48472525 8.93748309 -5.50575806 5.97511699 -2.5 2.375 C-1.675 1.59125 -0.85 0.8075 0 0 Z " fill="#262626" transform="translate(47,43)"/>
<path d="M0 0 C0.51949219 0.44472656 1.03898437 0.88945313 1.57421875 1.34765625 C2.27160156 1.91355469 2.96898437 2.47945312 3.6875 3.0625 C4.37199219 3.63097656 5.05648437 4.19945312 5.76171875 4.78515625 C7.98661551 6.26979951 7.98661551 6.26979951 10.76953125 5.68359375 C11.50558594 5.45800781 12.24164063 5.23242188 13 5 C17.62133526 10.69414523 19.68454718 14.72029767 19.2109375 22.12890625 C19.14132813 22.74636719 19.07171875 23.36382812 19 24 C12.25 24.125 12.25 24.125 10 23 C9.7525 21.741875 9.505 20.48375 9.25 19.1875 C8.45525267 15.67058661 8.20736964 15.1612875 5.1875 12.8125 C4.135625 12.214375 3.08375 11.61625 2 11 C-0.875 8.4375 -0.875 8.4375 -3 6 C-3 3 -3 3 -1.5 1.3125 C-0.7575 0.6628125 -0.7575 0.6628125 0 0 Z " fill="#F6F6F6" transform="translate(56,41)"/>
<path d="M0 0 C2.33524782 2.25740623 4.18705073 4.2805761 6 7 C9.25543229 6.65120368 10.01873107 5.97866739 12.25 3.4375 C13.11625 2.2309375 13.11625 2.2309375 14 1 C15 4 15 4 14.25 5.8125 C13.7042876 8.33658881 13.7042876 8.33658881 16.3125 11 C16.76238281 11.474375 17.21226563 11.94875 17.67578125 12.4375 C21.41504032 16.84960509 21.40337759 21.18173693 21.625 26.75 C21.66367188 27.54277344 21.70234375 28.33554688 21.7421875 29.15234375 C21.836108 31.10119416 21.91912822 33.05056451 22 35 C21.34 35 20.68 35 20 35 C20 35.66 20 36.32 20 37 C19.07767578 37.39832031 19.07767578 37.39832031 18.13671875 37.8046875 C17.32847656 38.15789062 16.52023438 38.51109375 15.6875 38.875 C14.48673828 39.39707031 14.48673828 39.39707031 13.26171875 39.9296875 C10.8038166 41.02571894 10.8038166 41.02571894 8 43 C8.350625 42.278125 8.70125 41.55625 9.0625 40.8125 C10.10409017 37.6877295 9.89096572 36.11838004 9 33 C9.66 33.99 10.32 34.98 11 36 C13.05925139 36.72382467 13.05925139 36.72382467 15 37 C14.34 35.02 13.68 33.04 13 31 C12.01 31.33 11.02 31.66 10 32 C10.6875 30.0625 10.6875 30.0625 12 28 C14.87939419 27.06419689 16.25509788 26.62754894 19 28 C18.8449918 21.12327256 17.96470753 15.12529106 13 10 C10.91449491 9.2469041 10.91449491 9.2469041 9 9 C9 11.31 9 13.62 9 16 C8.67 16 8.34 16 8 16 C7.938125 14.6696875 7.938125 14.6696875 7.875 13.3125 C6.67871446 8.78370473 4.73728113 7.70356508 1 5 C-0.99983534 5.79117904 -0.99983534 5.79117904 -3 7 C-3.33 7.99 -3.66 8.98 -4 10 C-4.99 9.34 -5.98 8.68 -7 8 C-6.21625 7.79375 -5.4325 7.5875 -4.625 7.375 C-1.69083714 6.19323388 -1.69083714 6.19323388 -0.6875 2.875 C-0.460625 1.92625 -0.23375 0.9775 0 0 Z " fill="#0A0A0A" transform="translate(56,37)"/>
<path d="M0 0 C2.14809171 3.22213757 2.29386153 4.27775401 2 8 C1 9 1 9 -2.08984375 9.0625 C-4.65234444 9.02087562 -7.21484444 8.97920904 -9.77734375 8.9375 C-12.89211236 8.76697855 -12.89211236 8.76697855 -15 10 C-15.36371923 3.57429353 -15.36371923 3.57429353 -13.8125 1.125 C-9.34483216 -1.64803521 -4.98847139 -1.12946522 0 0 Z " fill="#F8F8F8" transform="translate(71,23)"/>
<path d="M0 0 C4.29 0.33 8.58 0.66 13 1 C11.90972267 5.72453508 11.07575029 9.1229998 7 12 C5 12.125 5 12.125 3 11 C0.6875 8.25 0.6875 8.25 -1 5 C-0.67 3.35 -0.34 1.7 0 0 Z " fill="#F4F4F4" transform="translate(58,33)"/>
<path d="M0 0 C2.33524782 2.25740623 4.18705073 4.2805761 6 7 C9.25543229 6.65120368 10.01873107 5.97866739 12.25 3.4375 C13.11625 2.2309375 13.11625 2.2309375 14 1 C15 4 15 4 14.25 5.8125 C13.7042876 8.33658881 13.7042876 8.33658881 16.3125 11 C16.76238281 11.474375 17.21226563 11.94875 17.67578125 12.4375 C20.63924073 15.93420736 21.24455529 18.70689903 21.125 23.25 C21.10695313 24.14203125 21.08890625 25.0340625 21.0703125 25.953125 C21.04710938 26.62859375 21.02390625 27.3040625 21 28 C18.6068876 25.6068876 18.6121653 24.53090916 18.125 21.25 C17.25030168 16.52799578 16.16224713 13.62728347 13 10 C10.87880872 9.04768403 10.87880872 9.04768403 9 9 C9 11.31 9 13.62 9 16 C8.67 16 8.34 16 8 16 C7.938125 14.6696875 7.938125 14.6696875 7.875 13.3125 C6.67871446 8.78370473 4.73728113 7.70356508 1 5 C-0.99983534 5.79117904 -0.99983534 5.79117904 -3 7 C-3.33 7.99 -3.66 8.98 -4 10 C-4.99 9.34 -5.98 8.68 -7 8 C-6.21625 7.79375 -5.4325 7.5875 -4.625 7.375 C-1.69083714 6.19323388 -1.69083714 6.19323388 -0.6875 2.875 C-0.460625 1.92625 -0.23375 0.9775 0 0 Z " fill="#292929" transform="translate(56,37)"/>
<path d="M0 0 C0.66 1.32 1.32 2.64 2 4 C0.61341021 5.15700194 -0.78472441 6.30017623 -2.1875 7.4375 C-2.96480469 8.07558594 -3.74210937 8.71367188 -4.54296875 9.37109375 C-7.14283309 11.09469221 -8.89591914 11.79653924 -12 12 C-12.66 11.34 -13.32 10.68 -14 10 C-13.87109375 8.04296875 -13.87109375 8.04296875 -13 6 C-11.22265625 4.55078125 -11.22265625 4.55078125 -9.0625 3.3125 C-8.35222656 2.89613281 -7.64195313 2.47976562 -6.91015625 2.05078125 C-4.21754276 0.56956851 -3.174745 0 0 0 Z " fill="#EFEFEF" transform="translate(65,72)"/>
<path d="M0 0 C7.53987536 4.78694412 7.53987536 4.78694412 9.375 9.625 C9.58125 10.73875 9.7875 11.8525 10 13 C10.37125 13.70125 10.7425 14.4025 11.125 15.125 C12.23518586 17.50396971 12.14403872 19.40730309 12 22 C11.34 22.33 10.68 22.66 10 23 C9.79375 21.7625 9.5875 20.525 9.375 19.25 C8.50782998 15.7505692 8.18942839 15.14733319 5.1875 12.8125 C4.135625 12.214375 3.08375 11.61625 2 11 C-0.875 8.4375 -0.875 8.4375 -3 6 C-3 3 -3 3 -1.5 1.3125 C-0.7575 0.6628125 -0.7575 0.6628125 0 0 Z " fill="#383838" transform="translate(56,41)"/>
<path d="M0 0 C0.66 0 1.32 0 2 0 C2 4.29 2 8.58 2 13 C3.588125 12.195625 5.17625 11.39125 6.8125 10.5625 C9.54602182 9.17798895 12.08951208 7.97016264 15 7 C15.66 9.31 16.32 11.62 17 14 C16.2575 13.835 15.515 13.67 14.75 13.5 C10.21127551 12.67477737 7.34275884 13.07399584 3.25 15 C1.8475 15.66 0.445 16.32 -1 17 C-0.67 11.39 -0.34 5.78 0 0 Z " fill="#292929" transform="translate(54,60)"/>
<path d="M0 0 C0.66 0.33 1.32 0.66 2 1 C1.67 1.66 1.34 2.32 1 3 C1.37125 2.484375 1.7425 1.96875 2.125 1.4375 C4 0 4 0 7.1875 0.3125 C8.5796875 0.6528125 8.5796875 0.6528125 10 1 C9.67 2.65 9.34 4.3 9 6 C8.2575 5.979375 7.515 5.95875 6.75 5.9375 C4.05832211 5.89759189 4.05832211 5.89759189 1.75 6.5625 C1.1725 6.706875 0.595 6.85125 0 7 C-1 6 -1 6 -1.125 3.5 C-1 1 -1 1 0 0 Z " fill="#3E3E3E" transform="translate(72,77)"/>
<path d="M0 0 C0.66 0.33 1.32 0.66 2 1 C1.34 1.66 0.68 2.32 0 3 C0.33 3.66 0.66 4.32 1 5 C0.01 6.485 0.01 6.485 -1 8 C-1.44703234 10.21584546 -1.81463242 12.44841961 -2.125 14.6875 C-2.29257812 15.86699219 -2.46015625 17.04648437 -2.6328125 18.26171875 C-2.75398438 19.16535156 -2.87515625 20.06898437 -3 21 C-3.33 21 -3.66 21 -4 21 C-5.39132571 15.78252858 -6.63868828 8.90494741 -3.8828125 4.01953125 C-2.5 2.375 -2.5 2.375 0 0 Z " fill="#101010" transform="translate(47,43)"/>
<path d="M0 0 C2.54140493 1.46519774 4.88875077 2.95224699 7 5 C7.4375 8.3125 7.4375 8.3125 7 11 C3.56404834 9.47291037 0.88087546 7.40072955 -2 5 C-1.34 3.35 -0.68 1.7 0 0 Z " fill="#F0F0F0" transform="translate(56,41)"/>
<path d="M0 0 C2.33524782 2.25740623 4.18705073 4.2805761 6 7 C6.99 7.33 7.98 7.66 9 8 C9 10.64 9 13.28 9 16 C8.67 16 8.34 16 8 16 C7.938125 14.6696875 7.938125 14.6696875 7.875 13.3125 C6.67871446 8.78370473 4.73728113 7.70356508 1 5 C-0.99983534 5.79117904 -0.99983534 5.79117904 -3 7 C-3.33 7.99 -3.66 8.98 -4 10 C-4.99 9.34 -5.98 8.68 -7 8 C-6.21625 7.79375 -5.4325 7.5875 -4.625 7.375 C-1.69083714 6.19323388 -1.69083714 6.19323388 -0.6875 2.875 C-0.460625 1.92625 -0.23375 0.9775 0 0 Z " fill="#131313" transform="translate(56,37)"/>
<path d="M0 0 C1.32 0 2.64 0 4 0 C4 0.66 4 1.32 4 2 C4.99 2.33 5.98 2.66 7 3 C6.67 3.99 6.34 4.98 6 6 C3.4375 7.1875 3.4375 7.1875 1 8 C0.34 6.68 -0.32 5.36 -1 4 C-1.99 4.495 -1.99 4.495 -3 5 C-1.125 1.125 -1.125 1.125 0 0 Z " fill="#282828" transform="translate(69,64)"/>
<path d="M0 0 C0.66 0.99 1.32 1.98 2 3 C1.34 5.31 0.68 7.62 0 10 C-5.94 10 -11.88 10 -18 10 C-18 9.67 -18 9.34 -18 9 C-9.585 8.505 -9.585 8.505 -1 8 C-0.67 5.36 -0.34 2.72 0 0 Z " fill="#464646" transform="translate(76,96)"/>
<path d="M0 0 C0.99 0.33 1.98 0.66 3 1 C1.53892216 6.47904192 1.53892216 6.47904192 -0.875 8.8125 C-2.94238115 9.96780123 -4.67737921 10.58524629 -7 11 C-5.34473309 7.45299948 -3.90290901 4.63900819 -1 2 C-0.67 1.34 -0.34 0.68 0 0 Z " fill="#686868" transform="translate(53,36)"/>
<path d="M0 0 C0.66 0.66 1.32 1.32 2 2 C5.09926819 1.67801034 5.09926819 1.67801034 8 1 C8.66 2.32 9.32 3.64 10 5 C7.23749964 6.38125018 5.05268901 6.19079306 2 6 C1.34 5.34 0.68 4.68 0 4 C0 2.68 0 1.36 0 0 Z " fill="#060606" transform="translate(70,81)"/>
<path d="M0 0 C0.33 0.99 0.66 1.98 1 3 C0.67 3.66 0.34 4.32 0 5 C-0.22622081 6.70363822 -0.40888473 8.41328701 -0.5625 10.125 C-0.68818359 11.49011719 -0.68818359 11.49011719 -0.81640625 12.8828125 C-0.87699219 13.58148438 -0.93757813 14.28015625 -1 15 C-1.66 14.67 -2.32 14.34 -3 14 C-3.32374517 8.49633208 -3.53286034 4.56327794 0 0 Z " fill="#363636" transform="translate(49,83)"/>
<path d="M0 0 C0.33 0 0.66 0 1 0 C1.50423019 5.29441695 0.18923033 7.81413519 -3 12 C-4.125 8.25 -4.125 8.25 -3 6 C-3.66 5.67 -4.32 5.34 -5 5 C-3.35 4.34 -1.7 3.68 0 3 C0 2.01 0 1.02 0 0 Z " fill="#101010" transform="translate(74,28)"/>
<path d="M0 0 C2.375 0.25 2.375 0.25 5 1 C7.17831524 3.90442032 7.19715281 6.45124947 7 10 C6.01 10.495 6.01 10.495 5 11 C4.731875 9.741875 4.46375 8.48375 4.1875 7.1875 C3.40467463 4.00551199 2.74664072 1.99755689 0 0 Z " fill="#282828" transform="translate(61,53)"/>
<path d="M0 0 C0.66 0.33 1.32 0.66 2 1 C1.34 1.66 0.68 2.32 0 3 C0.33 3.66 0.66 4.32 1 5 C0.01 6.485 0.01 6.485 -1 8 C-1.99 8 -2.98 8 -4 8 C-3.50168276 4.31245243 -2.89932357 2.39509338 0 0 Z " fill="#171717" transform="translate(47,43)"/>
<path d="M0 0 C2.35953094 2.35953094 2.49141413 3.77895617 3 7 C1.35 6.67 -0.3 6.34 -2 6 C-1.125 1.125 -1.125 1.125 0 0 Z " fill="#E0E0E0" transform="translate(68,67)"/>
<path d="M0 0 C1.65 0 3.3 0 5 0 C4.67 1.65 4.34 3.3 4 5 C3.34 5 2.68 5 2 5 C1.34 3.35 0.68 1.7 0 0 Z " fill="#F3F3F3" transform="translate(77,78)"/>
<path d="M0 0 C-2.59482129 2.59482129 -4.39883625 2.69990302 -8 3 C-8.66 2.34 -9.32 1.68 -10 1 C-6.52674819 -0.1577506 -3.63932552 -0.06866652 0 0 Z " fill="#404040" transform="translate(69,20)"/>
</svg>
