<?xml version="1.0" encoding="UTF-8"?>
<svg version="1.1" xmlns="http://www.w3.org/2000/svg" width="126" height="126">
<path d="M0 0 C2.49757417 2.18443421 4.83827401 4.44354758 7.1484375 6.82421875 C7.79425781 7.46101563 8.44007812 8.0978125 9.10546875 8.75390625 C19.90538817 20.0949981 24.16038005 35.39117198 24.20996094 50.71875 C23.72655952 67.26182068 16.7946026 82.06642906 5.1484375 93.82421875 C-8.12302513 105.32352761 -23.65999219 110.55028466 -41.16015625 110.1015625 C-58.45432618 108.80221217 -72.23111347 101.30928452 -83.8515625 88.82421875 C-95.54753135 75.02125551 -99.17820874 58.50845691 -97.8515625 40.82421875 C-95.55341066 23.53979946 -86.45936679 9.47881604 -72.82421875 -1.13671875 C-50.94479905 -16.14467813 -21.24477294 -16.21005278 0 0 Z " fill="#FCFCFC" transform="translate(99.8515625,14.17578125)"/>
<path d="M0 0 C5.13010901 4.3139553 9.25690262 9.30608377 10.09375 16.10546875 C10.48076843 24.51344414 9.13575909 30.14722084 5.24023438 37.54174805 C2.67806737 42.57541474 2.34343188 46.70040795 2.75 52.3125 C-1.48074633 54.47720025 -5.71657458 56.63147187 -9.95751953 58.77612305 C-11.40038289 59.50763104 -12.84179915 60.24200052 -14.28173828 60.97924805 C-16.34817443 62.03664328 -18.41954544 63.08373921 -20.4921875 64.12890625 C-21.13807831 64.46217422 -21.78396912 64.7954422 -22.44943237 65.1388092 C-24.02041344 65.92469495 -25.63267998 66.62702653 -27.25 67.3125 C-27.91 66.9825 -28.57 66.6525 -29.25 66.3125 C-29.25 64.3325 -29.25 62.3525 -29.25 60.3125 C-29.99765625 60.35890625 -30.7453125 60.4053125 -31.515625 60.453125 C-39.41053979 60.74246743 -39.41053979 60.74246743 -42.8125 59 C-45.71292123 53.57747336 -46.25 47.38851216 -46.25 41.3125 C-47.57 40.6525 -48.89 39.9925 -50.25 39.3125 C-50.66598632 35.77661629 -50.45490462 34.58143731 -48.25 31.6875 C-46.10723923 28.0715912 -46.06882222 27.08238189 -46.25 23.0625 C-46.5162411 15.81482562 -44.31581385 9.72209347 -39.9375 3.9375 C-28.65258494 -7.08497517 -13.43070967 -6.97363771 0 0 Z " fill="#FAFAFA" transform="translate(81.25,31.6875)"/>
<path d="M0 0 C2.49757417 2.18443421 4.83827401 4.44354758 7.1484375 6.82421875 C7.79425781 7.46101563 8.44007812 8.0978125 9.10546875 8.75390625 C19.90538817 20.0949981 24.16038005 35.39117198 24.20996094 50.71875 C23.72655952 67.26182068 16.7946026 82.06642906 5.1484375 93.82421875 C-8.12302513 105.32352761 -23.65999219 110.55028466 -41.16015625 110.1015625 C-58.45432618 108.80221217 -72.23111347 101.30928452 -83.8515625 88.82421875 C-95.54753135 75.02125551 -99.17820874 58.50845691 -97.8515625 40.82421875 C-95.55341066 23.53979946 -86.45936679 9.47881604 -72.82421875 -1.13671875 C-50.94479905 -16.14467813 -21.24477294 -16.21005278 0 0 Z M-59.8515625 -2.17578125 C-60.60953125 -1.82515625 -61.3675 -1.47453125 -62.1484375 -1.11328125 C-77.26384942 6.3923026 -86.31047909 19.48478625 -91.6015625 35.02734375 C-94.45422787 45.40787608 -94.06017532 57.9403553 -89.8515625 67.82421875 C-89.449375 68.7884375 -89.0471875 69.75265625 -88.6328125 70.74609375 C-85.18352934 78.29619134 -80.74263263 84.01641463 -74.8515625 89.82421875 C-74.00464844 90.68660156 -74.00464844 90.68660156 -73.140625 91.56640625 C-62.91973823 101.18899721 -48.74535933 105.43265168 -34.9765625 105.04296875 C-19.54368813 103.96266754 -5.16736281 97.17087403 5.4921875 85.8828125 C16.98730115 71.59525379 19.8571547 55.66674642 18.1484375 37.82421875 C15.58050181 24.29206324 7.07270631 11.7854067 -3.86328125 3.55859375 C-19.75076929 -6.79031281 -42.27675739 -11.51623711 -59.8515625 -2.17578125 Z " fill="#050505" transform="translate(99.8515625,14.17578125)"/>
<path d="M0 0 C5.13010901 4.3139553 9.25690262 9.30608377 10.09375 16.10546875 C10.48076843 24.51344414 9.13575909 30.14722084 5.24023438 37.54174805 C2.67806737 42.57541474 2.34343188 46.70040795 2.75 52.3125 C-1.48074633 54.47720025 -5.71657458 56.63147187 -9.95751953 58.77612305 C-11.40038289 59.50763104 -12.84179915 60.24200052 -14.28173828 60.97924805 C-16.34817443 62.03664328 -18.41954544 63.08373921 -20.4921875 64.12890625 C-21.13807831 64.46217422 -21.78396912 64.7954422 -22.44943237 65.1388092 C-24.02041344 65.92469495 -25.63267998 66.62702653 -27.25 67.3125 C-27.91 66.9825 -28.57 66.6525 -29.25 66.3125 C-29.25 64.3325 -29.25 62.3525 -29.25 60.3125 C-29.99765625 60.35890625 -30.7453125 60.4053125 -31.515625 60.453125 C-39.41053979 60.74246743 -39.41053979 60.74246743 -42.8125 59 C-45.71292123 53.57747336 -46.25 47.38851216 -46.25 41.3125 C-47.57 40.6525 -48.89 39.9925 -50.25 39.3125 C-50.66598632 35.77661629 -50.45490462 34.58143731 -48.25 31.6875 C-46.10723923 28.0715912 -46.06882222 27.08238189 -46.25 23.0625 C-46.5162411 15.81482562 -44.31581385 9.72209347 -39.9375 3.9375 C-28.65258494 -7.08497517 -13.43070967 -6.97363771 0 0 Z M-36.93359375 5.69140625 C-42.10024397 12.05389836 -42.53937559 19.43107053 -42.90234375 27.3046875 C-43.38761369 31.50309032 -44.80336259 33.91877714 -47.25 37.3125 C-46.62480469 37.47621094 -45.99960937 37.63992187 -45.35546875 37.80859375 C-43.25 39.3125 -43.25 39.3125 -42.23828125 42.97265625 C-41.99528521 44.43727175 -41.77067118 45.90503048 -41.5625 47.375 C-41.21270154 52.23805489 -41.21270154 52.23805489 -39.25 56.3125 C-37.40108054 56.54613881 -35.54511969 56.72553635 -33.6875 56.875 C-32.67558594 56.95878906 -31.66367187 57.04257813 -30.62109375 57.12890625 C-29.44740234 57.21978516 -29.44740234 57.21978516 -28.25 57.3125 C-27.59 58.9625 -26.93 60.6125 -26.25 62.3125 C-20.70760694 60.65250339 -15.61288533 58.30047377 -10.4375 55.75 C-9.56673828 55.35748047 -8.69597656 54.96496094 -7.79882812 54.56054688 C-5.31293286 53.31856803 -3.29193395 52.20098399 -1.25 50.3125 C-0.46690153 47.94243345 -0.32976475 45.97655467 -0.30151367 43.48657227 C-0.22970882 40.45613544 0.84745148 38.25054986 2.1875 35.5625 C5.89100786 28.00071082 8.64985946 21.53022185 6.0625 13.0625 C3.27047556 6.92004623 -0.8091386 3.55434176 -6.8125 0.5 C-16.82662372 -2.86366919 -28.97881155 -1.61312128 -36.93359375 5.69140625 Z " fill="#1E1A1B" transform="translate(81.25,31.6875)"/>
<path d="M0 0 C0.84820312 0.40863281 1.69640625 0.81726562 2.5703125 1.23828125 C5.10175944 2.83008941 6.38628209 4.10132979 7.875 6.6875 C8.2734375 8.94140625 8.2734375 8.94140625 8.25 11.25 C8.26160156 12.39662109 8.26160156 12.39662109 8.2734375 13.56640625 C7.77344933 16.22810799 7.07492455 17.12963488 4.875 18.6875 C3.555 18.6875 2.235 18.6875 0.875 18.6875 C0.875 19.3475 0.875 20.0075 0.875 20.6875 C-0.775 20.6875 -2.425 20.6875 -4.125 20.6875 C-4.125 22.3375 -4.125 23.9875 -4.125 25.6875 C-5.115 25.3575 -6.105 25.0275 -7.125 24.6875 C-7.393125 24.048125 -7.66125 23.40875 -7.9375 22.75 C-9.66998127 19.74095358 -11.88527564 19.58359397 -15.125 18.6875 C-15.455 18.3575 -15.785 18.0275 -16.125 17.6875 C-18.63663415 17.23288522 -21.15452 16.85224997 -23.6796875 16.48046875 C-26.70823477 15.49836796 -27.56965286 14.42450697 -29.125 11.6875 C-29.51703417 8.48588764 -29.68457504 6.57103953 -27.9375 3.8125 C-25.56463721 2.33968861 -23.86586056 2.46526806 -21.125 2.6875 C-20.795 1.3675 -20.465 0.0475 -20.125 -1.3125 C-19.031875 -1.456875 -17.93875 -1.60125 -16.8125 -1.75 C-9.77013788 -2.82425863 -6.61661385 -3.26783834 0 0 Z " fill="#100B0C" transform="translate(75.125,38.3125)"/>
</svg>
