<?xml version="1.0" encoding="UTF-8"?>
<svg version="1.1" xmlns="http://www.w3.org/2000/svg" width="126" height="126">
<path d="M0 0 C2.49757417 2.18443421 4.83827401 4.44354758 7.1484375 6.82421875 C7.79425781 7.46101563 8.44007812 8.0978125 9.10546875 8.75390625 C19.90538817 20.0949981 24.16038005 35.39117198 24.20996094 50.71875 C23.72655952 67.26182068 16.7946026 82.06642906 5.1484375 93.82421875 C-8.12302513 105.32352761 -23.65999219 110.55028466 -41.16015625 110.1015625 C-58.45432618 108.80221217 -72.23111347 101.30928452 -83.8515625 88.82421875 C-95.54753135 75.02125551 -99.17820874 58.50845691 -97.8515625 40.82421875 C-95.55341066 23.53979946 -86.45936679 9.47881604 -72.82421875 -1.13671875 C-50.94479905 -16.14467813 -21.24477294 -16.21005278 0 0 Z " fill="#FBFBFB" transform="translate(99.8515625,14.17578125)"/>
<path d="M0 0 C0.80308594 -0.01546875 1.60617188 -0.0309375 2.43359375 -0.046875 C9.18823142 -0.0030848 14.34565086 1.83280903 19.5234375 6.2109375 C21.85961128 9.08726706 23.39388244 11.17540511 24.5625 14.75 C25.23568937 17.72658806 25.23568937 17.72658806 28.0625 18.9375 C30.5 20.5 30.5 20.5 31.5625 23.9375 C31.541875 25.113125 31.52125 26.28875 31.5 27.5 C30.88125 28.0775 30.2625 28.655 29.625 29.25 C27.00841249 32.02050443 27.21943652 33.09158565 27.0625 36.8125 C26.70199377 43.55396651 24.24257543 46.75742457 19.5 51.5 C20.2425 52.015625 20.985 52.53125 21.75 53.0625 C24.8386624 55.80017803 27.23151662 58.55990636 28.5 62.5 C28.59290543 65.16961425 28.53021932 67.82786924 28.5 70.5 C20.68547248 70.52526563 12.87095542 70.54283105 5.05639648 70.55493164 C2.39558519 70.55997383 -0.26522332 70.56680736 -2.92602539 70.57543945 C-6.74105516 70.58751009 -10.55604844 70.59322929 -14.37109375 70.59765625 C-16.16793861 70.60539818 -16.16793861 70.60539818 -18.00108337 70.61329651 C-19.65268211 70.61340981 -19.65268211 70.61340981 -21.33764648 70.61352539 C-22.31249496 70.615746 -23.28734344 70.61796661 -24.29173279 70.62025452 C-26.5 70.5 -26.5 70.5 -27.5 69.5 C-28.25440512 64.34489834 -26.66074212 61.47302675 -23.87890625 57.3359375 C-22.25965212 55.17999008 -20.51522448 53.29131065 -18.5 51.5 C-19.44875 50.7575 -20.3975 50.015 -21.375 49.25 C-23.93043447 47.25009476 -25.33669311 45.55093694 -26.5 42.5 C-26.68816927 40.6720699 -26.80941361 38.83641894 -26.875 37 C-27.20674421 32.27420977 -27.8852184 30.64835817 -31.5 27.5 C-32.125 24.5625 -32.125 24.5625 -31.5 21.5 C-30.04314952 20.23739625 -28.5752144 18.98090929 -27.015625 17.84765625 C-24.52265912 15.63097267 -23.74869232 12.54029434 -22.5 9.5 C-16.44830424 2.0650595 -9.28937616 -0.17892859 0 0 Z " fill="#F8F8F8" transform="translate(62.5,23.5)"/>
<path d="M0 0 C2.49757417 2.18443421 4.83827401 4.44354758 7.1484375 6.82421875 C7.79425781 7.46101563 8.44007812 8.0978125 9.10546875 8.75390625 C19.90538817 20.0949981 24.16038005 35.39117198 24.20996094 50.71875 C23.72655952 67.26182068 16.7946026 82.06642906 5.1484375 93.82421875 C-8.12302513 105.32352761 -23.65999219 110.55028466 -41.16015625 110.1015625 C-58.45432618 108.80221217 -72.23111347 101.30928452 -83.8515625 88.82421875 C-95.54753135 75.02125551 -99.17820874 58.50845691 -97.8515625 40.82421875 C-95.55341066 23.53979946 -86.45936679 9.47881604 -72.82421875 -1.13671875 C-50.94479905 -16.14467813 -21.24477294 -16.21005278 0 0 Z M-59.8515625 -2.17578125 C-60.60953125 -1.82515625 -61.3675 -1.47453125 -62.1484375 -1.11328125 C-77.26384942 6.3923026 -86.31047909 19.48478625 -91.6015625 35.02734375 C-94.45422787 45.40787608 -94.06017532 57.9403553 -89.8515625 67.82421875 C-89.449375 68.7884375 -89.0471875 69.75265625 -88.6328125 70.74609375 C-85.18352934 78.29619134 -80.74263263 84.01641463 -74.8515625 89.82421875 C-74.00464844 90.68660156 -74.00464844 90.68660156 -73.140625 91.56640625 C-62.91973823 101.18899721 -48.74535933 105.43265168 -34.9765625 105.04296875 C-19.54368813 103.96266754 -5.16736281 97.17087403 5.4921875 85.8828125 C16.98730115 71.59525379 19.8571547 55.66674642 18.1484375 37.82421875 C15.58050181 24.29206324 7.07270631 11.7854067 -3.86328125 3.55859375 C-19.75076929 -6.79031281 -42.27675739 -11.51623711 -59.8515625 -2.17578125 Z " fill="#050505" transform="translate(99.8515625,14.17578125)"/>
<path d="M0 0 C0.80308594 -0.01546875 1.60617188 -0.0309375 2.43359375 -0.046875 C9.18823142 -0.0030848 14.34565086 1.83280903 19.5234375 6.2109375 C21.85961128 9.08726706 23.39388244 11.17540511 24.5625 14.75 C25.23568937 17.72658806 25.23568937 17.72658806 28.0625 18.9375 C30.5 20.5 30.5 20.5 31.5625 23.9375 C31.541875 25.113125 31.52125 26.28875 31.5 27.5 C30.88125 28.0775 30.2625 28.655 29.625 29.25 C27.00841249 32.02050443 27.21943652 33.09158565 27.0625 36.8125 C26.70199377 43.55396651 24.24257543 46.75742457 19.5 51.5 C20.2425 52.015625 20.985 52.53125 21.75 53.0625 C24.8386624 55.80017803 27.23151662 58.55990636 28.5 62.5 C28.59290543 65.16961425 28.53021932 67.82786924 28.5 70.5 C20.68547248 70.52526563 12.87095542 70.54283105 5.05639648 70.55493164 C2.39558519 70.55997383 -0.26522332 70.56680736 -2.92602539 70.57543945 C-6.74105516 70.58751009 -10.55604844 70.59322929 -14.37109375 70.59765625 C-16.16793861 70.60539818 -16.16793861 70.60539818 -18.00108337 70.61329651 C-19.65268211 70.61340981 -19.65268211 70.61340981 -21.33764648 70.61352539 C-22.31249496 70.615746 -23.28734344 70.61796661 -24.29173279 70.62025452 C-26.5 70.5 -26.5 70.5 -27.5 69.5 C-28.25440512 64.34489834 -26.66074212 61.47302675 -23.87890625 57.3359375 C-22.25965212 55.17999008 -20.51522448 53.29131065 -18.5 51.5 C-19.44875 50.7575 -20.3975 50.015 -21.375 49.25 C-23.93043447 47.25009476 -25.33669311 45.55093694 -26.5 42.5 C-26.68816927 40.6720699 -26.80941361 38.83641894 -26.875 37 C-27.20674421 32.27420977 -27.8852184 30.64835817 -31.5 27.5 C-32.125 24.5625 -32.125 24.5625 -31.5 21.5 C-30.04314952 20.23739625 -28.5752144 18.98090929 -27.015625 17.84765625 C-24.52265912 15.63097267 -23.74869232 12.54029434 -22.5 9.5 C-16.44830424 2.0650595 -9.28937616 -0.17892859 0 0 Z M-20.4375 11.875 C-21.73033998 15.06907525 -22.16481412 18.08110405 -22.5 21.5 C-24.15 21.83 -25.8 22.16 -27.5 22.5 C-27.5 24.15 -27.5 25.8 -27.5 27.5 C-26.18 27.83 -24.86 28.16 -23.5 28.5 C-23.54640625 29.29664062 -23.5928125 30.09328125 -23.640625 30.9140625 C-23.94693722 39.52254334 -23.94693722 39.52254334 -19.5 46.5 C-15.92091977 48.88605349 -13.30168444 48.82260415 -9.1640625 48.8359375 C-8.44769623 48.8425943 -7.73132996 48.8492511 -6.99325562 48.85610962 C-5.47860274 48.86622695 -3.96390538 48.87092692 -2.44921875 48.87060547 C-0.13987109 48.87497188 2.16755384 48.91127729 4.4765625 48.94921875 C5.95051432 48.95508867 7.42447519 48.95905689 8.8984375 48.9609375 C9.58505463 48.97530853 10.27167175 48.98967957 10.97909546 49.00448608 C15.75289407 48.95933802 18.14643655 47.86768372 21.5 44.5 C23.00156874 41.49686252 22.59281204 38.70932478 22.5625 35.375 C22.55347656 34.09367187 22.54445312 32.81234375 22.53515625 31.4921875 C22.52355469 30.50476563 22.51195312 29.51734375 22.5 28.5 C23.82 28.17 25.14 27.84 26.5 27.5 C26.83 25.85 27.16 24.2 27.5 22.5 C26.736875 22.355625 25.97375 22.21125 25.1875 22.0625 C21.99820479 20.2082586 22.03569238 19.65793689 21.125 16.25 C19.83953903 11.79756536 18.14093362 9.41430122 14.484375 6.5859375 C11.1749097 4.77485216 8.243157 4.63133884 4.5 4.5 C4.54125 5.428125 4.5825 6.35625 4.625 7.3125 C4.5 10.5 4.5 10.5 2.5 13.5 C0.375 14.1875 0.375 14.1875 -1.5 14.5 C-1.5 13.51 -1.5 12.52 -1.5 11.5 C-0.51 11.17 0.48 10.84 1.5 10.5 C1.17 8.52 0.84 6.54 0.5 4.5 C-8.41706878 3.76237482 -14.59286163 4.71060457 -20.4375 11.875 Z " fill="#2F3035" transform="translate(62.5,23.5)"/>
<path d="M0 0 C3.55219196 0.87034249 7.08154566 0.78638228 10.72021484 0.74804688 C11.4659375 0.75578125 12.21166016 0.76351562 12.97998047 0.77148438 C16.86137439 0.75763462 19.70818293 0.55003069 23.03271484 -1.50195312 C26.42343963 -2.02360309 27.7121653 -1.70038856 30.65771484 0.12304688 C34.04684141 3.51217344 36.03271484 6.64305945 36.03271484 11.49804688 C19.86271484 11.49804688 3.69271484 11.49804688 -12.96728516 11.49804688 C-11.86808361 4.90283759 -11.25065516 3.99036175 -6.96728516 -0.50195312 C-4.22965192 -1.87076974 -2.79415899 -0.85974123 0 0 Z " fill="#F1F1F2" transform="translate(51.96728515625,79.501953125)"/>
<path d="M0 0 C0.515625 0.165 1.03125 0.33 1.5625 0.5 C6.07708398 1.42606851 10.59363721 1.41003609 15 0 C14.75 1.875 14.75 1.875 14 4 C10.82621533 6.35095161 7.84908937 6.39276422 4 6 C1.125 4.5 1.125 4.5 -1 3 C-0.67 2.01 -0.34 1.02 0 0 Z " fill="#303136" transform="translate(55,61)"/>
<path d="M0 0 C1.32 0.66 2.64 1.32 4 2 C4.125 8.75 4.125 8.75 3 11 C1.68 10.67 0.36 10.34 -1 10 C-2.25 3.375 -2.25 3.375 0 0 Z " fill="#2E2F34" transform="translate(52,41)"/>
<path d="M0 0 C1.65 0.33 3.3 0.66 5 1 C5.125 7.75 5.125 7.75 4 10 C2.68 9.67 1.36 9.34 0 9 C-1.125 2.25 -1.125 2.25 0 0 Z " fill="#2C2D32" transform="translate(69,42)"/>
<path d="M0 0 C2.475 0.495 2.475 0.495 5 1 C4.67 1.99 4.34 2.98 4 4 C2.68 3.67 1.36 3.34 0 3 C0 2.01 0 1.02 0 0 Z " fill="#434448" transform="translate(47,54)"/>
</svg>
