<?xml version="1.0" encoding="UTF-8"?>
<svg version="1.1" xmlns="http://www.w3.org/2000/svg" width="46" height="46">
<path d="M0 0 C0.7027002 -0.00191345 1.40540039 -0.0038269 2.12939453 -0.00579834 C3.61556354 -0.00715975 5.10174445 -0.00346632 6.58789062 0.00488281 C8.86615646 0.01558346 11.14363377 0.00498661 13.421875 -0.0078125 C14.86458508 -0.0064909 16.30729466 -0.00392849 17.75 0 C19.06742188 0.00225586 20.38484375 0.00451172 21.7421875 0.00683594 C24.875 0.265625 24.875 0.265625 26.875 2.265625 C27.0745697 4.82312953 27.15486826 7.27000641 27.140625 9.828125 C27.14349518 10.94876343 27.14349518 10.94876343 27.14642334 12.09204102 C27.14778498 13.67236671 27.14409 15.25270358 27.13574219 16.83300781 C27.125042 19.25611422 27.13563779 21.67847923 27.1484375 24.1015625 C27.1471159 25.63541831 27.1445535 27.16927365 27.140625 28.703125 C27.14467346 29.43023682 27.14872192 30.15734863 27.15289307 30.90649414 C27.10492361 36.03570139 27.10492361 36.03570139 24.875 38.265625 C21.7421875 38.52441406 21.7421875 38.52441406 17.75 38.53125 C17.0472998 38.53316345 16.34459961 38.5350769 15.62060547 38.53704834 C14.13443646 38.53840975 12.64825555 38.53471632 11.16210938 38.52636719 C8.88384354 38.51566654 6.60636623 38.52626339 4.328125 38.5390625 C2.88541492 38.5377409 1.44270534 38.53517849 0 38.53125 C-1.31742188 38.52899414 -2.63484375 38.52673828 -3.9921875 38.52441406 C-7.125 38.265625 -7.125 38.265625 -9.125 36.265625 C-9.3245697 33.70812047 -9.40486826 31.26124359 -9.390625 28.703125 C-9.39253845 27.95603271 -9.3944519 27.20894043 -9.39642334 26.43920898 C-9.39778498 24.85888329 -9.39409 23.27854642 -9.38574219 21.69824219 C-9.375042 19.27513578 -9.38563779 16.85277077 -9.3984375 14.4296875 C-9.3971159 12.89583169 -9.3945535 11.36197635 -9.390625 9.828125 C-9.39467346 9.10101318 -9.39872192 8.37390137 -9.40289307 7.62475586 C-9.33305137 0.15682673 -6.98585518 0.01196208 0 0 Z " fill="#049C04" transform="translate(14.125,3.734375)"/>
<path d="M0 0 C3.3 0 6.6 0 10 0 C10 2.31 10 4.62 10 7 C12.31 7 14.62 7 17 7 C17 10.3 17 13.6 17 17 C14.69 17 12.38 17 10 17 C10 19.31 10 21.62 10 24 C6.7 24 3.4 24 0 24 C0 21.69 0 19.38 0 17 C-2.31 17 -4.62 17 -7 17 C-7 13.7 -7 10.4 -7 7 C-4.69 7 -2.38 7 0 7 C0 4.69 0 2.38 0 0 Z " fill="#FFFFFF" transform="translate(18,11)"/>
</svg>
